<svg xmlns="http://www.w3.org/2000/svg" width="13.2" height="13.2" viewBox="0 0 13.2 13.2"><defs><style>.a{fill:#585858;stroke:#585858;stroke-width:0.2px;}</style></defs><g transform="translate(0.1 0.1)"><path class="a" d="M6.5,0A6.5,6.5,0,1,0,13,6.5,6.507,6.507,0,0,0,6.5,0Zm0,12.458A5.958,5.958,0,1,1,12.458,6.5,5.965,5.965,0,0,1,6.5,12.458Z"/><path class="a" d="M196.357,151.9l-3.925-2.523a.28.28,0,0,0-.432.236v5.046a.28.28,0,0,0,.432.236l3.925-2.523a.28.28,0,0,0,0-.471Zm-3.8,2.245v-4.019l3.126,2.01Z" transform="translate(-187.211 -145.635)"/></g></svg>