<svg xmlns="http://www.w3.org/2000/svg" width="37.095" height="40.238" viewBox="0 0 37.095 40.238"><defs><style>.a{fill:#b7b7b7;}</style></defs><g transform="translate(-20)"><g transform="translate(20)"><path class="a" d="M385.213,16.288l4.268,3.559a1.572,1.572,0,1,0,2.013-2.414l-4.268-3.559a1.572,1.572,0,1,0-2.013,2.414Z" transform="translate(-355.99 -12.448)"/><path class="a" d="M34.618,20.213a1.565,1.565,0,0,0,1.006-.365l4.268-3.559a1.572,1.572,0,1,0-2.013-2.414L33.61,17.434a1.572,1.572,0,0,0,1.008,2.779Z" transform="translate(-32.02 -12.448)"/><path class="a" d="M51.662,8.576A18.408,18.408,0,0,0,40.119,3.21V1.572a1.572,1.572,0,0,0-3.144,0V3.21a18.547,18.547,0,0,0-11.543,31.6,18.55,18.55,0,0,0,24.107,1.826A1.572,1.572,0,1,0,47.674,34.1a15.383,15.383,0,1,1,4.378-4.994,1.572,1.572,0,1,0,2.754,1.516A18.557,18.557,0,0,0,51.662,8.576Z" transform="translate(-20)"/><path class="a" d="M226.8,151.5a1.572,1.572,0,0,0-2.211.233l-4.956,6.124a3.147,3.147,0,1,0,2.443,1.978l4.956-6.125A1.572,1.572,0,0,0,226.8,151.5Z" transform="translate(-200.596 -139.269)"/></g></g></svg>