<svg xmlns="http://www.w3.org/2000/svg" width="45.008" height="45.008" viewBox="0 0 45.008 45.008"><defs><style>.a{fill:#deecf5;}</style></defs><path class="a" d="M39.257,0H5.751A5.758,5.758,0,0,0,0,5.751V39.257a5.758,5.758,0,0,0,5.751,5.751H39.257a5.758,5.758,0,0,0,5.751-5.751V5.751A5.758,5.758,0,0,0,39.257,0Zm3.1,39.257a3.1,3.1,0,0,1-3.1,3.1H5.751a3.1,3.1,0,0,1-3.1-3.1V34.421L11.376,27a.857.857,0,0,1,1.1-.007l5.465,4.538a1.326,1.326,0,0,0,1.785-.083L32.717,18.44a.858.858,0,0,1,1.273.065l8.367,10.3V39.257Zm0-14.655-6.309-7.768a3.509,3.509,0,0,0-5.207-.267L18.709,28.717l-4.535-3.766a3.5,3.5,0,0,0-4.516.027L2.651,30.94V5.751a3.1,3.1,0,0,1,3.1-3.1H39.257a3.1,3.1,0,0,1,3.1,3.1Z"/><g transform="translate(7.776 5.538)"><path class="a" d="M94.853,62.995a6.392,6.392,0,1,0,6.392,6.392A6.4,6.4,0,0,0,94.853,62.995Zm0,10.133a3.741,3.741,0,1,1,3.741-3.741A3.745,3.745,0,0,1,94.853,73.128Z" transform="translate(-88.461 -62.995)"/></g></svg>