<svg xmlns="http://www.w3.org/2000/svg" width="24" height="24" viewBox="0 0 24 24"><defs><style>.a{fill:#6c6c6c;}.b{fill:none;}</style></defs><g transform="translate(-1227 -209)"><g transform="translate(1230.001 212)"><path class="a" d="M16.658,1.666h-2.5V.416a.416.416,0,1,0-.833,0V1.666H5.83V.416A.416.416,0,1,0,5,.416V1.666H1.666A1.668,1.668,0,0,0,0,3.331V16.657a1.668,1.668,0,0,0,1.666,1.666H13.742a.416.416,0,0,0,.294-.122L18.2,14.037a.4.4,0,0,0,.106-.294h.016V3.331A1.668,1.668,0,0,0,16.658,1.666ZM14.159,16.9v-1.91a.834.834,0,0,1,.833-.833H16.9Zm3.331-3.576h-2.5a1.668,1.668,0,0,0-1.666,1.666v2.5H1.666a.834.834,0,0,1-.833-.833V6.663H17.49Zm0-7.5H.833v-2.5A.834.834,0,0,1,1.666,2.5H5v.833a.833.833,0,1,0,.833.833V2.5h7.5v.833a.833.833,0,1,0,.833.833V2.5h2.5a.834.834,0,0,1,.833.833Z"/><g transform="translate(1 1)"><circle class="a" cx="0.5" cy="0.5" r="0.5" transform="translate(9 8)"/><circle class="a" cx="0.5" cy="0.5" r="0.5" transform="translate(9 10)"/><circle class="a" cx="0.5" cy="0.5" r="0.5" transform="translate(7 8)"/><circle class="a" cx="0.5" cy="0.5" r="0.5" transform="translate(7 10)"/><circle class="a" cx="0.5" cy="0.5" r="0.5" transform="translate(3 8)"/><circle class="a" cx="0.5" cy="0.5" r="0.5" transform="translate(3 10)"/><circle class="a" cx="0.5" cy="0.5" r="0.5" transform="translate(3 12)"/><circle class="a" cx="0.5" cy="0.5" r="0.5" transform="translate(5 8)"/><circle class="a" cx="0.5" cy="0.5" r="0.5" transform="translate(5 10)"/><circle class="a" cx="0.5" cy="0.5" r="0.5" transform="translate(5 12)"/><circle class="a" cx="0.5" cy="0.5" r="0.5" transform="translate(13 8)"/><circle class="a" cx="0.5" cy="0.5" r="0.5" transform="translate(13 10)"/><circle class="a" cx="0.5" cy="0.5" r="0.5" transform="translate(11 8)"/><circle class="a" cx="0.5" cy="0.5" r="0.5" transform="translate(11 10)"/><circle class="a" cx="0.5" cy="0.5" r="0.5" transform="translate(7 12)"/><circle class="a" cx="0.5" cy="0.5" r="0.5" transform="translate(9 12)"/></g></g><rect class="b" width="24" height="24" transform="translate(1227 209)"/></g></svg>