<?xml version="1.0" encoding="utf-8"?>
<!-- Generator: Adobe Illustrator 24.0.2, SVG Export Plug-In . SVG Version: 6.00 Build 0)  -->
<svg version="1.1" xmlns="http://www.w3.org/2000/svg" xmlns:xlink="http://www.w3.org/1999/xlink" x="0px" y="0px"
	 viewBox="0 0 2600 1600" style="enable-background:new 0 0 2600 1600;" xml:space="preserve">
<style type="text/css">
	.st0{fill:url(#SVGID_1_);}
	.st1{fill:#FFFFFF;}
	.st2{fill:#FAFAFA;}
	.st3{fill:#F5F5F5;}
	.st4{fill:#F0F0F0;}
	.st5{fill:#EBEBEB;}
	.st6{fill:#E6E6E6;}
	.st7{fill:#E1E1E1;}
	.st8{fill:#DCDCDC;}
	.st9{fill:#D7D7D7;}
	.st10{fill:#D2D2D2;}
	.st11{fill:#CDCDCD;}
	.st12{fill:#C7C7C7;}
	.st13{fill:#C2C2C2;}
	.st14{fill:#BDBDBD;}
	.st15{fill:#B8B8B8;}
	.st16{fill:#B3B3B3;}
	.st17{fill:#AEAEAE;}
	.st18{fill:#A9A9A9;}
	.st19{fill:#A4A4A4;}
	.st20{fill:#9F9F9F;}
	.st21{fill:#9A9A9A;}
	.st22{fill:#959595;}
	.st23{fill:#3FA9F5;}
	.st24{display:none;fill:#222222;}
	.st25{font-family:'OpenSans-Bold';}
	.st26{font-size:90px;}
	.st27{fill:#222222;}
	.st28{fill:none;}
	.st29{clip-path:url(#SVGID_3_);}
	.st30{fill:url(#SVGID_4_);}
	.st31{fill:url(#SVGID_5_);}
	.st32{fill:#141414;}
	.st33{fill:#F3F3F3;}
	.st34{fill:#E7E7E7;}
	.st35{fill:#DBDBDB;}
	.st36{fill:#CECECE;}
	.st37{fill:#B6B6B6;}
	.st38{fill:#AAAAAA;}
	.st39{fill:#9E9E9E;}
	.st40{fill:#929292;}
	.st41{fill:#868686;}
	.st42{fill:#797979;}
	.st43{fill:#6D6D6D;}
	.st44{fill:#616161;}
	.st45{fill:#555555;}
	.st46{fill:#494949;}
	.st47{fill:#3D3D3D;}
	.st48{fill:#313131;}
	.st49{fill:#242424;}
	.st50{fill:#181818;}
	.st51{fill:#0C0C0C;}
	.st52{fill:url(#SVGID_6_);}
	.st53{fill:url(#SVGID_43_);}
	.st54{fill:url(#SVGID_44_);}
	.st55{fill:url(#SVGID_45_);}
	.st56{fill:url(#SVGID_46_);}
	.st57{fill:url(#SVGID_47_);}
	.st58{fill:url(#SVGID_48_);}
	.st59{fill:url(#SVGID_49_);}
	.st60{fill:url(#SVGID_50_);}
	.st61{fill:url(#SVGID_51_);}
	.st62{fill:url(#SVGID_88_);}
	.st63{fill:url(#SVGID_89_);}
	.st64{fill:#2890EA;}
	.st65{font-family:'Fontastique-Fontastique';}
	.st66{font-size:129.9283px;}
	.st67{fill:#F16625;}
	.st68{font-size:25.466px;}
	.st69{fill:#CC5144;}
	.st70{fill:#AAE1F9;}
	.st71{fill:#F8664F;}
	.st72{fill:#F9E109;}
	.st73{font-size:72px;}
</style>
<g id="Layer_3">
	<linearGradient id="SVGID_1_" gradientUnits="userSpaceOnUse" x1="33.7457" y1="57.5386" x2="2594.8901" y2="1559.252">
		<stop  offset="0" style="stop-color:#FFFFFF"/>
		<stop  offset="1" style="stop-color:#DDDDDD"/>
	</linearGradient>
	<rect class="st0" width="2600" height="1600"/>
</g>
<g id="Layer_2">
	<g>
		<g>
			<g>
				<path class="st1" d="M367.9,1018c-34.3,0-62.1-25.1-62.1-55.9c0-30.8,27.9-55.9,62.1-55.9h371.2c34.3,0,62.1,25.1,62.1,55.9
					c0,30.8-27.9,55.9-62.1,55.9H367.9z"/>
			</g>
			<g>
				<path class="st2" d="M367.5,907.3h371.9c27.6,0,50.9,16.9,58.1,39.7c1.5,4.7,2.3,10.1,2.3,15.2c0,30.1-27.1,54.5-60.5,54.5
					H367.5c-33.3,0-60.5-24.5-60.5-54.5c0-5.1,0.8-10.5,2.3-15.2C316.6,924.2,339.9,907.3,367.5,907.3z"/>
			</g>
			<g>
				<path class="st3" d="M367.1,908.5h372.7c27,0,49.6,16.7,56.6,39.1c1.4,4.5,2.2,10,2.2,14.9c0,29.3-26.4,53.1-58.8,53.1H367.1
					c-32.4,0-58.8-23.8-58.8-53.1c0-4.9,0.8-10.4,2.2-14.9C317.5,925.2,340.1,908.5,367.1,908.5z"/>
			</g>
			<g>
				<path class="st4" d="M366.7,909.7h373.4c26.4,0,48.3,16.5,55,38.5c1.3,4.2,2.1,9.9,2.1,14.6c0,28.6-25.6,51.8-57.1,51.8H366.7
					c-31.5,0-57.1-23.2-57.1-51.8c0-4.6,0.8-10.3,2.1-14.6C318.5,926.1,340.4,909.7,366.7,909.7z"/>
			</g>
			<g>
				<path class="st5" d="M366.4,910.8h374.2c25.7,0,47,16.3,53.5,37.8c1.2,4,2,9.9,2,14.2c0,27.8-24.9,50.4-55.4,50.4H366.4
					c-30.6,0-55.4-22.6-55.4-50.4c0-4.4,0.8-10.2,2-14.2C319.4,927.1,340.6,910.8,366.4,910.8z"/>
			</g>
			<g>
				<path class="st6" d="M366,912h374.9c25.1,0,45.7,16,51.9,37.2c1.1,3.8,1.9,9.8,1.9,13.9c0,27-24.1,49-53.8,49H366
					c-29.7,0-53.8-22-53.8-49c0-4.1,0.7-10.1,1.9-13.9C320.3,928.1,340.9,912,366,912z"/>
			</g>
			<g>
				<path class="st7" d="M365.6,913.2h375.7c24.5,0,44.4,15.8,50.4,36.6c1,3.6,1.7,9.7,1.7,13.6c0,26.3-23.4,47.7-52.1,47.7H365.6
					c-28.7,0-52.1-21.4-52.1-47.7c0-3.8,0.7-10,1.7-13.6C321.2,929,341.2,913.2,365.6,913.2z"/>
			</g>
			<g>
				<path class="st8" d="M365.2,914.3h376.4c23.8,0,43.1,15.6,48.8,35.9c0.9,3.3,1.6,9.7,1.6,13.3c0,25.5-22.6,46.3-50.4,46.3H365.2
					c-27.8,0-50.4-20.8-50.4-46.3c0-3.6,0.7-9.9,1.6-13.3C322.2,930,341.4,914.3,365.2,914.3z"/>
			</g>
			<g>
				<path class="st9" d="M364.9,915.5H742c23.2,0,41.8,15.4,47.3,35.3c0.9,3.1,1.5,9.6,1.5,12.9c0,24.8-21.9,44.9-48.8,44.9H364.9
					c-26.9,0-48.8-20.1-48.8-44.9c0-3.3,0.7-9.8,1.5-12.9C323.1,930.9,341.7,915.5,364.9,915.5z"/>
			</g>
			<g>
				<path class="st10" d="M364.5,916.7h377.9c22.6,0,40.5,15.2,45.7,34.7c0.8,2.9,1.4,9.5,1.4,12.6c0,24-21.1,43.5-47.1,43.5H364.5
					c-26,0-47.1-19.5-47.1-43.5c0-3.1,0.6-9.8,1.4-12.6C324,931.9,341.9,916.7,364.5,916.7z"/>
			</g>
			<g>
				<path class="st11" d="M364.1,917.8h378.7c21.9,0,39.2,15,44.1,34c0.7,2.6,1.3,9.5,1.3,12.3c0,23.3-20.4,42.2-45.4,42.2H364.1
					c-25.1,0-45.4-18.9-45.4-42.2c0-2.8,0.6-9.7,1.3-12.3C325,932.8,342.2,917.8,364.1,917.8z"/>
			</g>
			<g>
				<path class="st12" d="M363.7,919h379.4c21.3,0,37.8,14.7,42.6,33.4c0.6,2.4,1.2,9.4,1.2,12c0,22.5-19.6,40.8-43.8,40.8H363.7
					c-24.1,0-43.8-18.3-43.8-40.8c0-2.6,0.6-9.6,1.2-12C325.9,933.7,342.5,919,363.7,919z"/>
			</g>
			<g>
				<path class="st13" d="M363.4,920.2h380.2c20.7,0,36.5,14.5,41,32.8c0.5,2.2,1,9.3,1,11.6c0,21.7-18.9,39.4-42.1,39.4H363.4
					c-23.2,0-42.1-17.7-42.1-39.4c0-2.3,0.5-9.5,1-11.6C326.8,934.7,342.7,920.2,363.4,920.2z"/>
			</g>
			<g>
				<path class="st14" d="M363,921.3h380.9c20,0,35.2,14.3,39.5,32.1c0.5,1.9,0.9,9.3,0.9,11.3c0,21-18.1,38-40.4,38H363
					c-22.3,0-40.4-17-40.4-38c0-2.1,0.5-9.4,0.9-11.3C327.8,935.6,343,921.3,363,921.3z"/>
			</g>
			<g>
				<path class="st15" d="M362.6,922.5h381.7c19.4,0,33.9,14,37.9,31.5c0.4,1.7,0.8,9.2,0.8,11c0,20.2-17.4,36.7-38.7,36.7H362.6
					c-21.4,0-38.7-16.4-38.7-36.7c0-1.8,0.4-9.3,0.8-11C328.7,936.5,343.2,922.5,362.6,922.5z"/>
			</g>
			<g>
				<path class="st16" d="M362.2,923.7h382.4c18.7,0,32.6,13.8,36.4,30.9c0.3,1.4,0.7,9.1,0.7,10.7c0,19.5-16.6,35.3-37.1,35.3
					H362.2c-20.5,0-37.1-15.8-37.1-35.3c0-1.5,0.4-9.2,0.7-10.7C329.6,937.5,343.5,923.7,362.2,923.7z"/>
			</g>
			<g>
				<path class="st17" d="M361.9,924.8H745c18.1,0,31.3,13.6,34.8,30.2c0.3,1.2,0.6,9.1,0.6,10.3c0,18.7-15.9,33.9-35.4,33.9H361.9
					c-19.5,0-35.4-15.2-35.4-33.9c0-1.3,0.3-9.1,0.6-10.3C330.6,938.4,343.8,924.8,361.9,924.8z"/>
			</g>
			<g>
				<path class="st18" d="M361.5,926h383.9c17.5,0,30,13.3,33.3,29.6c0.2,1,0.5,9,0.5,10c0,18-15.1,32.5-33.7,32.5H361.5
					c-18.6,0-33.7-14.6-33.7-32.5c0-1,0.3-9.1,0.5-10C331.5,939.3,344,926,361.5,926z"/>
			</g>
			<g>
				<path class="st19" d="M361.1,927.2h384.7c16.8,0,28.7,13.1,31.7,29c0.1,0.7,0.3,8.9,0.3,9.7c0,17.2-14.4,31.2-32.1,31.2H361.1
					c-17.7,0-32.1-14-32.1-31.2c0-0.8,0.2-9,0.3-9.7C332.4,940.2,344.3,927.2,361.1,927.2z"/>
			</g>
			<g>
				<path class="st20" d="M360.7,928.3h385.4c16.2,0,27.4,12.8,30.2,28.3c0.1,0.5,0.2,8.9,0.2,9.4c0,16.5-13.6,29.8-30.4,29.8H360.7
					c-16.8,0-30.4-13.3-30.4-29.8c0-0.5,0.1-8.9,0.2-9.4C333.4,941.1,344.5,928.3,360.7,928.3z"/>
			</g>
			<g>
				<path class="st21" d="M360.4,929.5h386.2c15.6,0,26,12.6,28.6,27.7c0,0.2,0.1,8.8,0.1,9.1c0,15.7-12.9,28.4-28.7,28.4H360.4
					c-15.9,0-28.7-12.7-28.7-28.4c0-0.3,0.1-8.8,0.1-9.1C334.3,942.1,344.8,929.5,360.4,929.5z"/>
			</g>
			<g>
				<path class="st22" d="M746.9,993.5H360c-14.9,0-27.1-12.1-27.1-27.1v-8.7c0-14.9,12.1-27.1,27.1-27.1h386.9
					c14.9,0,27.1,12.1,27.1,27.1v8.7C774,981.4,761.9,993.5,746.9,993.5z"/>
			</g>
		</g>
		<path class="st23" d="M745.5,1004.6H359.4c-21.9,0-39.7-17.8-39.7-39.7V952c0-21.9,17.8-39.7,39.7-39.7h386.1
			c21.9,0,39.7,17.8,39.7,39.7v12.8C785.3,986.8,767.5,1004.6,745.5,1004.6z"/>
		<text transform="matrix(1 0 0 1 211.9219 621.2473)" class="st24 st25 st26">EDUCATION</text>
		<text transform="matrix(1 0 0 1 175.9219 695.2473)"><tspan x="0" y="0" class="st27 st25 st26">NEET Preparation</tspan><tspan x="0" y="108" class="st27 st25 st26">CRASH COURSE </tspan></text>
		<rect x="320.9" y="508" class="st28" width="892.1" height="340.9"/>
		<g>
		</g>
	</g>
	<g>
		<defs>
			<rect id="SVGID_2_" width="2600" height="1600"/>
		</defs>
		<clipPath id="SVGID_3_">
			<use xlink:href="#SVGID_2_"  style="overflow:visible;"/>
		</clipPath>
		<g class="st29">
			
				<linearGradient id="SVGID_4_" gradientUnits="userSpaceOnUse" x1="1549.1166" y1="620.7007" x2="2417.354" y2="1421.7526" gradientTransform="matrix(0.9891 0.1473 -0.1473 0.9891 120.1042 -245.5407)">
				<stop  offset="0" style="stop-color:#FFA6D8"/>
				<stop  offset="1" style="stop-color:#9075FF"/>
			</linearGradient>
			<path class="st30" d="M1262.9,950.2c-88.1,23.9-138.1,170.3-54.8,270.6c152.8,184.1,331.3,280.9,637.4,266.9
				c318.9-14.6,576.6-327.8,603-651.6c21.8-268.1-170-470.4-417-434.6c-247,35.8-255.9,217-397.8,371.6S1372.3,920.5,1262.9,950.2z"
				/>
			<g>
				
					<linearGradient id="SVGID_5_" gradientUnits="userSpaceOnUse" x1="914.1622" y1="1684.7502" x2="1888.2816" y2="1363.0719" gradientTransform="matrix(0.7687 -0.6396 0.6396 0.7687 -477.6237 204.4944)">
					<stop  offset="0.1285" style="stop-color:#000000"/>
					<stop  offset="0.3827" style="stop-color:#272425"/>
					<stop  offset="0.5391" style="stop-color:#3D3D3D"/>
					<stop  offset="0.6508" style="stop-color:#050505"/>
					<stop  offset="0.8771" style="stop-color:#000000"/>
				</linearGradient>
				<path class="st31" d="M1449.5,366.9l-232,422.8c-2.2,4,1.8,8.5,6,6.9l444.9-167.8c4.4-1.7,8.1-4.7,10.6-8.7l268.5-426
					c2.5-3.9-1.4-8.8-5.8-7.2l-480.7,170C1456.2,358.7,1452,362.3,1449.5,366.9z"/>
				<path class="st32" d="M1671,620.8c-1.4,1.1-2.9,2-4.5,2.6l-438.6,163.4l231.4-411.5c1-1.8,2.2-3.3,3.8-4.6
					c1.4-1.2,3.1-2.1,4.9-2.8l469.4-171.5l-263,420.5C1673.3,618.5,1672.2,619.8,1671,620.8L1671,620.8z"/>
				<g>
					<path class="st1" d="M1772.1,352.1c40.5,48.7-16.8,163.2-128,255.7c-111.2,92.5-234.2,128.1-274.7,79.4
						c-40.5-48.7,16.8-163.2,128-255.7C1608.6,339,1731.6,303.4,1772.1,352.1z"/>
					<path class="st33" d="M1771.6,353.1c40.2,48.3-17,162.2-127.8,254.4c-110.8,92.2-233.2,127.7-273.4,79.4
						c-40.2-48.3,17-162.2,127.8-254.4C1609,340.3,1731.4,304.8,1771.6,353.1z"/>
					<path class="st34" d="M1771.1,354.1c39.9,48-17.2,161.3-127.6,253.1c-110.4,91.8-232.2,127.4-272.1,79.4
						c-39.9-48,17.2-161.3,127.6-253.1C1609.4,341.6,1731.2,306.1,1771.1,354.1z"/>
					<path class="st35" d="M1770.6,355c39.6,47.6-17.4,160.3-127.3,251.8c-109.9,91.5-231.2,127-270.8,79.4
						c-39.6-47.6,17.4-160.3,127.3-251.8C1609.8,343,1731,307.4,1770.6,355z"/>
					<path class="st36" d="M1770.1,356c39.3,47.2-17.6,159.4-127.1,250.5c-109.5,91.1-230.1,126.7-269.5,79.4
						c-39.3-47.2,17.6-159.4,127.1-250.5C1610.2,344.3,1730.8,308.8,1770.1,356z"/>
					<path class="st13" d="M1769.6,357c39,46.9-17.8,158.5-126.9,249.2c-109.1,90.8-229.1,126.3-268.1,79.5
						c-39-46.9,17.8-158.5,126.9-249.2C1610.6,345.7,1730.6,310.1,1769.6,357z"/>
					<path class="st37" d="M1769.1,358c38.7,46.5-18,157.5-126.7,247.9c-108.7,90.4-228.1,126-266.8,79.5
						c-38.7-46.5,18-157.5,126.7-247.9C1611,347,1730.4,311.4,1769.1,358z"/>
					<path class="st38" d="M1768.6,358.9c38.4,46.2-18.2,156.6-126.4,246.6c-108.2,90.1-227.1,125.6-265.5,79.5
						c-38.4-46.2,18.2-156.6,126.4-246.6C1611.4,348.4,1730.2,312.8,1768.6,358.9z"/>
					<path class="st39" d="M1768.2,359.9c38.1,45.8-18.4,155.6-126.2,245.3c-107.8,89.7-226.1,125.3-264.2,79.5
						c-38.1-45.8,18.4-155.6,126.2-245.3C1611.8,349.7,1730,314.1,1768.2,359.9z"/>
					<path class="st40" d="M1767.7,360.9c37.8,45.4-18.6,154.7-126,244c-107.4,89.3-225.1,124.9-262.9,79.5
						c-37.8-45.4,18.6-154.7,126-244C1612.2,351.1,1729.9,315.5,1767.7,360.9z"/>
					<path class="st41" d="M1767.2,361.9c37.5,45.1-18.8,153.8-125.8,242.8c-107,89-224.1,124.6-261.6,79.5
						c-37.5-45.1,18.8-153.8,125.8-242.7C1612.6,352.4,1729.7,316.8,1767.2,361.9z"/>
					<path class="st42" d="M1766.7,362.8c37.2,44.7-19,152.8-125.5,241.5c-106.5,88.6-223,124.3-260.3,79.5
						c-37.2-44.7,19-152.8,125.5-241.5C1613,353.7,1729.5,318.1,1766.7,362.8z"/>
					<path class="st43" d="M1766.2,363.8c36.9,44.4-19.2,151.9-125.3,240.2c-106.1,88.3-222,123.9-258.9,79.6
						c-36.9-44.3,19.2-151.9,125.3-240.2C1613.4,355.1,1729.3,319.5,1766.2,363.8z"/>
					<path class="st44" d="M1765.7,364.8c36.6,44-19.4,150.9-125.1,238.9c-105.7,87.9-221,123.6-257.6,79.6
						c-36.6-44,19.4-150.9,125.1-238.9C1613.8,356.4,1729.1,320.8,1765.7,364.8z"/>
					<path class="st45" d="M1765.2,365.8c36.3,43.6-19.6,150-124.9,237.6c-105.3,87.6-220,123.2-256.3,79.6
						c-36.3-43.6,19.6-150,124.9-237.6C1614.2,357.8,1728.9,322.1,1765.2,365.8z"/>
					<path class="st46" d="M1764.7,366.7c36,43.3-19.8,149-124.6,236.3c-104.8,87.2-219,122.9-255,79.6
						c-36-43.3,19.8-149,124.6-236.3C1614.6,359.1,1728.7,323.5,1764.7,366.7z"/>
					<path class="st47" d="M1764.2,367.7c35.7,42.9-20,148.1-124.4,235c-104.4,86.9-218,122.5-253.7,79.6
						c-35.7-42.9,20-148.1,124.4-235C1615,360.5,1728.5,324.8,1764.2,367.7z"/>
					<path class="st48" d="M1763.7,368.7c35.4,42.5-20.2,147.2-124.2,233.7c-104,86.5-217,122.2-252.4,79.6
						c-35.4-42.5,20.2-147.2,124.2-233.7C1615.4,361.8,1728.3,326.2,1763.7,368.7z"/>
					<path class="st49" d="M1763.2,369.7c35.1,42.2-20.4,146.2-124,232.4c-103.6,86.2-216,121.8-251,79.6
						c-35.1-42.2,20.4-146.2,124-232.4C1615.8,363.2,1728.2,327.5,1763.2,369.7z"/>
					<path class="st50" d="M1762.8,370.7c34.8,41.8-20.6,145.3-123.7,231.1c-103.1,85.8-214.9,121.5-249.7,79.7
						c-34.8-41.8,20.6-145.3,123.7-231.1C1616.2,364.5,1728,328.8,1762.8,370.7z"/>
					<path class="st51" d="M1762.3,371.6c34.5,41.5-20.8,144.3-123.5,229.8c-102.7,85.5-213.9,121.1-248.4,79.7
						c-34.5-41.5,20.8-144.3,123.5-229.8C1616.5,365.8,1727.8,330.2,1762.3,371.6z"/>
					<path d="M1761.8,372.6c34.2,41.1-21,143.4-123.3,228.5c-102.3,85.1-212.9,120.8-247.1,79.7c-34.2-41.1,21-143.4,123.3-228.5
						C1616.9,367.2,1727.6,331.5,1761.8,372.6z"/>
				</g>
				<g>
					<path class="st32" d="M1495.2,778.5c0,0,44.9,45.7,212.6-91.3c164.6-134.6,128.5-192.5,128.5-192.5s-103.2-68.7-240.9,46.2
						C1523.8,600.6,1463.1,742.7,1495.2,778.5z"/>
					<path d="M1510,775.5c41.9,2.4,103.4-19.6,193-94.1c95.9-79.8,128.6-136.3,127.6-172.7c-0.6-20.6-52.6-12.1-84.3,1
						c-72.4,29.8-87.8,118.3-87.8,118.3s-96.1,13.6-128.3,53.6C1498,721.5,1496.3,774.7,1510,775.5z"/>
				</g>
				<g>
					
						<linearGradient id="SVGID_6_" gradientUnits="userSpaceOnUse" x1="1133.3396" y1="1575.4893" x2="1143.3755" y2="1575.4893" gradientTransform="matrix(0.7687 -0.6396 0.6396 0.7687 -477.6237 204.4944)">
						<stop  offset="0" style="stop-color:#632B02"/>
						<stop  offset="0.5391" style="stop-color:#D3882D"/>
						<stop  offset="1" style="stop-color:#632B02"/>
					</linearGradient>
					<path class="st52" d="M1492.6,784.7l-7.7,6.4L1322.5,596c-4.7-5.7-0.7-14.5,6.8-7.5L1492.6,784.7z"/>
					<g>
						<g>
							<defs>
								<path id="SVGID_7_" d="M1478.6,766.7l-0.5-0.5l-0.1-0.1c-0.8-0.8-0.8-2.1,0-2.9c0.8-0.8,2.1-0.8,2.9,0l0.5,0.5L1478.6,766.7
									z"/>
							</defs>
							<clipPath id="SVGID_8_">
								<use xlink:href="#SVGID_7_"  style="overflow:visible;"/>
							</clipPath>
							<g style="clip-path:url(#SVGID_8_);">
								<image style="overflow:visible;" width="11" height="11" xlink:href="C2438AE7.png"  transform="matrix(1 0 0 1 1472 757)">
								</image>
							</g>
						</g>
						<image style="overflow:visible;" width="49" height="83" xlink:href="C2438AE5.png"  transform="matrix(1 0 0 1 1478 763)">
						</image>
						<g>
							<defs>
								<path id="SVGID_9_" d="M1526.4,842.4l0.4,0.5l0,0c0.7,0.9,0.5,2.2-0.4,2.9c-0.9,0.7-2.2,0.5-2.9-0.4l-0.4-0.5L1526.4,842.4z
									"/>
							</defs>
							<clipPath id="SVGID_10_">
								<use xlink:href="#SVGID_9_"  style="overflow:visible;"/>
							</clipPath>
							<g style="clip-path:url(#SVGID_10_);">
								<image style="overflow:visible;" width="10" height="11" xlink:href="C2438AEB.png"  transform="matrix(1 0 0 1 1522 841)">
								</image>
							</g>
						</g>
					</g>
					<g>
						<g>
							<defs>
								<path id="SVGID_11_" d="M1467.3,775.6l-0.4-0.6c-0.7-0.9-0.4-2.2,0.5-2.9c0.9-0.7,2.2-0.4,2.9,0.5l0,0l0.4,0.5L1467.3,775.6
									z"/>
							</defs>
							<clipPath id="SVGID_12_">
								<use xlink:href="#SVGID_11_"  style="overflow:visible;"/>
							</clipPath>
							<g style="clip-path:url(#SVGID_12_);">
								<image style="overflow:visible;" width="10" height="11" xlink:href="C2438AED.png"  transform="matrix(1 0 0 1 1462 766)">
								</image>
							</g>
						</g>
						<image style="overflow:visible;" width="72" height="72" xlink:href="C2438AEF.png"  transform="matrix(1 0 0 1 1466 772)">
						</image>
						<g>
							<defs>
								<path id="SVGID_13_" d="M1537.2,839.7l0.5,0.4c0.9,0.7,1,2,0.3,2.9c-0.7,0.9-2,1-2.9,0.3l0,0l-0.5-0.4L1537.2,839.7z"/>
							</defs>
							<clipPath id="SVGID_14_">
								<use xlink:href="#SVGID_13_"  style="overflow:visible;"/>
							</clipPath>
							<g style="clip-path:url(#SVGID_14_);">
								<image style="overflow:visible;" width="12" height="11" xlink:href="C2438AEC.png"  transform="matrix(1 0 0 1 1533 838)">
								</image>
							</g>
						</g>
					</g>
					<g>
						<g>
							<defs>
								<path id="SVGID_15_" d="M1478.7,778.6l-0.5-0.5l0,0c-0.8-0.8-0.7-2.1,0.1-2.9c0.8-0.8,2.1-0.7,2.9,0.1l0.5,0.5L1478.7,778.6
									z"/>
							</defs>
							<clipPath id="SVGID_16_">
								<use xlink:href="#SVGID_15_"  style="overflow:visible;"/>
							</clipPath>
							<g style="clip-path:url(#SVGID_16_);">
								<image style="overflow:visible;" width="11" height="11" xlink:href="C2438AE4.png"  transform="matrix(1 0 0 1 1472 769)">
								</image>
							</g>
						</g>
						<image style="overflow:visible;" width="49" height="71" xlink:href="C2438AE6.png"  transform="matrix(1 0 0 1 1478 775)">
						</image>
						<g>
							<defs>
								<path id="SVGID_17_" d="M1526.5,842l0.4,0.5l0.1,0.1c0.8,0.8,0.7,2.1-0.2,2.9s-2.1,0.7-2.9-0.1l-0.5-0.5L1526.5,842z"/>
							</defs>
							<clipPath id="SVGID_18_">
								<use xlink:href="#SVGID_17_"  style="overflow:visible;"/>
							</clipPath>
							<g style="clip-path:url(#SVGID_18_);">
								<image style="overflow:visible;" width="11" height="11" xlink:href="C2438AE2.png"  transform="matrix(1 0 0 1 1522 841)">
								</image>
							</g>
						</g>
					</g>
					<g>
						<g>
							<defs>
								<path id="SVGID_19_" d="M1477.3,778.6l-0.5-0.5l0,0c-0.8-0.8-0.9-2.1-0.1-2.9c0.8-0.8,2.1-0.9,2.9-0.1l0.5,0.5L1477.3,778.6
									z"/>
							</defs>
							<clipPath id="SVGID_20_">
								<use xlink:href="#SVGID_19_"  style="overflow:visible;"/>
							</clipPath>
							<g style="clip-path:url(#SVGID_20_);">
								<image style="overflow:visible;" width="12" height="11" xlink:href="13C31364.png"  transform="matrix(1 0 0 1 1470 769)">
								</image>
							</g>
						</g>
						<image style="overflow:visible;" width="54" height="64" xlink:href="13C31363.png"  transform="matrix(1 0 0 1 1476 775)">
						</image>
						<g>
							<defs>
								<path id="SVGID_21_" d="M1529.1,834.7l0.4,0.5l0.1,0.1c0.8,0.8,0.7,2.1-0.1,2.9c-0.8,0.8-2.1,0.7-2.9-0.1l-0.5-0.5
									L1529.1,834.7z"/>
							</defs>
							<clipPath id="SVGID_22_">
								<use xlink:href="#SVGID_21_"  style="overflow:visible;"/>
							</clipPath>
							<g style="clip-path:url(#SVGID_22_);">
								<image style="overflow:visible;" width="11" height="12" xlink:href="13C3137C.png"  transform="matrix(1 0 0 1 1525 833)">
								</image>
							</g>
						</g>
					</g>
					<g>
						<g>
							<defs>
								<path id="SVGID_23_" d="M1512.9,830.3l0.4,0.5l0,0c0.6,0.9,0.4,2.2-0.5,2.8c-0.9,0.6-2.2,0.4-2.8-0.5l-0.4-0.5L1512.9,830.3
									z"/>
							</defs>
							<clipPath id="SVGID_24_">
								<use xlink:href="#SVGID_23_"  style="overflow:visible;"/>
							</clipPath>
							<g style="clip-path:url(#SVGID_24_);">
								<image style="overflow:visible;" width="10" height="11" xlink:href="13C3137F.png"  transform="matrix(1 0 0 1 1508 829)">
								</image>
							</g>
						</g>
						<image style="overflow:visible;" width="38" height="54" xlink:href="13C3137D.png"  transform="matrix(1 0 0 1 1476 780)">
						</image>
						<g>
							<defs>
								<path id="SVGID_25_" d="M1477.1,782.6l-0.3-0.6c-0.5-1-0.1-2.2,1-2.7c1-0.5,2.2-0.1,2.7,1l0.1,0.2l0.3,0.6L1477.1,782.6z"/>
							</defs>
							<clipPath id="SVGID_26_">
								<use xlink:href="#SVGID_25_"  style="overflow:visible;"/>
							</clipPath>
							<g style="clip-path:url(#SVGID_26_);">
								<image style="overflow:visible;" width="9" height="11" xlink:href="13C31362.png"  transform="matrix(1 0 0 1 1473 773)">
								</image>
							</g>
						</g>
					</g>
					<g>
						<g>
							<defs>
								<path id="SVGID_27_" d="M1531.4,840.5l0.5,0.4l0.1,0.1c0.9,0.7,1,2,0.3,2.9c-0.7,0.9-2,1-2.9,0.3l-0.5-0.4L1531.4,840.5z"/>
							</defs>
							<clipPath id="SVGID_28_">
								<use xlink:href="#SVGID_27_"  style="overflow:visible;"/>
							</clipPath>
							<g style="clip-path:url(#SVGID_28_);">
								<image style="overflow:visible;" width="12" height="11" xlink:href="13C31365.png"  transform="matrix(1 0 0 1 1527 839)">
								</image>
							</g>
						</g>
						<image style="overflow:visible;" width="49" height="56" xlink:href="13C31367.png"  transform="matrix(1 0 0 1 1483 789)">
						</image>
						<g>
							<defs>
								<path id="SVGID_29_" d="M1484.5,792.6l-0.5-0.5c-0.8-0.8-0.9-2.1-0.2-2.9c0.8-0.8,2-0.9,2.9-0.2l0,0l0.5,0.4L1484.5,792.6z"
									/>
							</defs>
							<clipPath id="SVGID_30_">
								<use xlink:href="#SVGID_29_"  style="overflow:visible;"/>
							</clipPath>
							<g style="clip-path:url(#SVGID_30_);">
								<image style="overflow:visible;" width="12" height="11" xlink:href="13C31360.png"  transform="matrix(1 0 0 1 1477 783)">
								</image>
							</g>
						</g>
					</g>
					<g>
						<g>
							<defs>
								<path id="SVGID_31_" d="M1530.1,824.4l0.6,0.3l0.1,0c1,0.6,1.3,1.8,0.7,2.8c-0.6,1-1.8,1.3-2.8,0.7l-0.6-0.3L1530.1,824.4z"
									/>
							</defs>
							<clipPath id="SVGID_32_">
								<use xlink:href="#SVGID_31_"  style="overflow:visible;"/>
							</clipPath>
							<g style="clip-path:url(#SVGID_32_);">
								<image style="overflow:visible;" width="12" height="10" xlink:href="13C31361.png"  transform="matrix(1 0 0 1 1526 823)">
								</image>
							</g>
						</g>
						<image style="overflow:visible;" width="48" height="59" xlink:href="13C31387.png"  transform="matrix(1 0 0 1 1483 770)">
						</image>
						<g>
							<defs>
								<path id="SVGID_33_" d="M1484.2,774.5l-0.4-0.3l-0.5-0.3c-1-0.6-1.3-1.8-0.7-2.8c0.5-0.9,1.7-1.2,2.6-0.8l0.7,0.4
									L1484.2,774.5z"/>
							</defs>
							<clipPath id="SVGID_34_">
								<use xlink:href="#SVGID_33_"  style="overflow:visible;"/>
							</clipPath>
							<g style="clip-path:url(#SVGID_34_);">
								<image style="overflow:visible;" width="12" height="9" xlink:href="13C31381.png"  transform="matrix(1 0 0 1 1476 766)">
								</image>
							</g>
						</g>
					</g>
					<g>
						<g>
							<defs>
								<path id="SVGID_35_" d="M1515.8,834.2l0.5,0.4l0.1,0c0.9,0.7,1,2,0.3,2.9c-0.7,0.9-2,1-2.9,0.3l-0.5-0.4L1515.8,834.2z"/>
							</defs>
							<clipPath id="SVGID_36_">
								<use xlink:href="#SVGID_35_"  style="overflow:visible;"/>
							</clipPath>
							<g style="clip-path:url(#SVGID_36_);">
								<image style="overflow:visible;" width="11" height="10" xlink:href="13C31383.png"  transform="matrix(1 0 0 1 1512 833)">
								</image>
							</g>
						</g>
						<image style="overflow:visible;" width="43" height="61" xlink:href="13C3138E.png"  transform="matrix(1 0 0 1 1474 777)">
						</image>
						<g>
							<defs>
								<path id="SVGID_37_" d="M1475,781.3l-0.4-0.4l-0.4-0.3c-0.8-0.8-0.8-2.1,0-2.9c0.8-0.8,2-0.8,2.8-0.1l0.6,0.5L1475,781.3z"
									/>
							</defs>
							<clipPath id="SVGID_38_">
								<use xlink:href="#SVGID_37_"  style="overflow:visible;"/>
							</clipPath>
							<g style="clip-path:url(#SVGID_38_);">
								<image style="overflow:visible;" width="11" height="10" xlink:href="13C3138F.png"  transform="matrix(1 0 0 1 1468 772)">
								</image>
							</g>
						</g>
					</g>
					<g>
						<g>
							<defs>
								<path id="SVGID_39_" d="M1533.1,833l0.3,0.6c0.5,1,0.1,2.2-0.9,2.7c-1,0.5-2.2,0.1-2.7-0.9l0,0l-0.3-0.6L1533.1,833z"/>
							</defs>
							<clipPath id="SVGID_40_">
								<use xlink:href="#SVGID_39_"  style="overflow:visible;"/>
							</clipPath>
							<g style="clip-path:url(#SVGID_40_);">
								<image style="overflow:visible;" width="10" height="12" xlink:href="13C31382.png"  transform="matrix(1 0 0 1 1528 831)">
								</image>
							</g>
						</g>
						<image style="overflow:visible;" width="61" height="70" xlink:href="13C31385.png"  transform="matrix(1 0 0 1 1473 766)">
						</image>
						<g>
							<defs>
								<path id="SVGID_41_" d="M1473.7,770.3l-0.5-0.4l0,0c-0.9-0.7-1-2-0.2-2.9c0.7-0.9,2-0.9,2.9-0.2l0.5,0.4L1473.7,770.3z"/>
							</defs>
							<clipPath id="SVGID_42_">
								<use xlink:href="#SVGID_41_"  style="overflow:visible;"/>
							</clipPath>
							<g style="clip-path:url(#SVGID_42_);">
								<image style="overflow:visible;" width="11" height="11" xlink:href="13C31386.png"  transform="matrix(1 0 0 1 1467 761)">
								</image>
							</g>
						</g>
					</g>
					
						<linearGradient id="SVGID_43_" gradientUnits="userSpaceOnUse" x1="1127.3199" y1="1693.879" x2="1149.3955" y2="1693.879" gradientTransform="matrix(0.7687 -0.6396 0.6396 0.7687 -477.6237 204.4944)">
						<stop  offset="0" style="stop-color:#632B02"/>
						<stop  offset="0.5391" style="stop-color:#D3882D"/>
						<stop  offset="1" style="stop-color:#632B02"/>
					</linearGradient>
					<path class="st53" d="M1483,797.7c0,0,4.4-0.7,10-5c5.5-4.3,6.1-8.3,6.1-8.3s-15.1-21-19.8-23.8c-4.8-2.9-18.3,7.8-15,14.6
						C1465.7,778.3,1483,797.7,1483,797.7z"/>
				</g>
			</g>
			<g>
				<g>
					<g>
						<image style="overflow:visible;" width="520" height="361" xlink:href="13C31384.png"  transform="matrix(1 0 0 1 1486 935)">
						</image>
						<image style="overflow:visible;" width="93" height="34" xlink:href="13C313BC.png"  transform="matrix(1 0 0 1 1490 927)">
						</image>
					</g>
					<g>
						
							<image style="overflow:visible;" width="583" height="265" xlink:href="13C313A6.png"  transform="matrix(1 0 0 1 1499 1112)">
						</image>
						<image style="overflow:visible;" width="93" height="33" xlink:href="13C31399.png"  transform="matrix(1 0 0 1 1499 1149)">
						</image>
					</g>
					<g>
						<image style="overflow:visible;" width="517" height="654" xlink:href="13C3139A.png"  transform="matrix(1 0 0 1 1734 739)">
						</image>
						<image style="overflow:visible;" width="58" height="58" xlink:href="13C31398.png"  transform="matrix(1 0 0 1 1768 733)">
						</image>
					</g>
					<linearGradient id="SVGID_44_" gradientUnits="userSpaceOnUse" x1="2001.787" y1="1837.9038" x2="2011.329" y2="1231.9675">
						<stop  offset="0" style="stop-color:#EEC1A1"/>
						<stop  offset="1" style="stop-color:#A2654B"/>
					</linearGradient>
					<path class="st54" d="M2038.2,1907.8c0,0-64-79.6-91.1-146.4c-27-66.8-41.3-178-47.6-287.7c-6.4-109.7,62-316.5,62-316.5
						l124.1,70c0,0,0,200.4,0,224.2c0,23.9,25.4,353.1,25.4,353.1L2038.2,1907.8z"/>
					<g>
						<g>
							<linearGradient id="SVGID_45_" gradientUnits="userSpaceOnUse" x1="1530.3396" y1="962.6558" x2="2023.2778" y2="962.6558">
								<stop  offset="0" style="stop-color:#181818"/>
								<stop  offset="1" style="stop-color:#000000"/>
							</linearGradient>
							<path class="st55" d="M1974.7,1430.2h-395.7c-26.8,0-48.6-21.8-48.6-48.6v-838c0-26.8,21.8-48.6,48.6-48.6h395.7
								c26.8,0,48.6,21.8,48.6,48.6v838C2023.3,1408.5,2001.5,1430.2,1974.7,1430.2z"/>
							<path class="st1" d="M1541.4,1378.2V544.6c0-15.3,12.4-27.7,27.7-27.7h415.3c15.3,0,27.7,12.4,27.7,27.7v833.6
								c0,15.3-12.4,27.7-27.7,27.7h-415.3C1553.8,1406,1541.4,1393.5,1541.4,1378.2z"/>
						</g>
						<linearGradient id="SVGID_46_" gradientUnits="userSpaceOnUse" x1="1667.0839" y1="523.7256" x2="1898.8386" y2="523.7256">
							<stop  offset="0" style="stop-color:#181818"/>
							<stop  offset="1" style="stop-color:#000000"/>
						</linearGradient>
						<rect x="1667.1" y="503.3" class="st56" width="231.8" height="40.9"/>
					</g>
					<g>
						<image style="overflow:visible;" width="295" height="739" xlink:href="13C3139E.png"  transform="matrix(1 0 0 1 1992 697)">
						</image>
						<image style="overflow:visible;" width="38" height="73" xlink:href="13C3139B.png"  transform="matrix(1 0 0 1 2039 698)">
						</image>
					</g>
					<image style="overflow:visible;" width="309" height="321" xlink:href="13C31396.png"  transform="matrix(1 0 0 1 1916 1043)">
					</image>
					<image style="overflow:visible;" width="369" height="604" xlink:href="13C31397.png"  transform="matrix(1 0 0 1 1970 1316)">
					</image>
					<image style="overflow:visible;" width="648" height="929" xlink:href="13C313E6.png"  transform="matrix(1 0 0 1 2037 1774)">
					</image>
					<image style="overflow:visible;" width="79" height="54" xlink:href="13C313E9.png"  transform="matrix(1 0 0 1 1937 1036)">
					</image>
					<linearGradient id="SVGID_47_" gradientUnits="userSpaceOnUse" x1="2001.1766" y1="1954.6541" x2="2356.6277" y2="1835.3755">
						<stop  offset="3.475940e-02" style="stop-color:#C2C2C2"/>
						<stop  offset="0.2139" style="stop-color:#FFFFFF"/>
						<stop  offset="0.471" style="stop-color:#F4F4F4"/>
						<stop  offset="0.9215" style="stop-color:#D7D7D7"/>
						<stop  offset="1" style="stop-color:#D1D1D1"/>
					</linearGradient>
					<path class="st57" d="M2338.7,1749.9c0,0-103.6-3.4-214.9,41.1c-111.3,44.5-153.7,89.1-153.7,89.1l67.9,185.6
						c0,0,53-46.2,146.3-87c101.8-44.5,198.8-46.5,198.8-46.5L2338.7,1749.9z"/>
					<linearGradient id="SVGID_48_" gradientUnits="userSpaceOnUse" x1="1935.0554" y1="2277.5388" x2="2716.7295" y2="2277.5388">
						<stop  offset="0" style="stop-color:#1C2635"/>
						<stop  offset="1" style="stop-color:#070A0D"/>
					</linearGradient>
					<path class="st58" d="M2383.1,1852.1c0,0-156.7,23.9-258,65.3c-101.4,41.3-190,121.7-190,121.7s100.9,188.5,149.4,339.5
						c51,158.8,84,324.4,84,324.4l548.3-41.4C2716.7,2661.6,2401.6,1952.1,2383.1,1852.1z"/>
				</g>
			</g>
			<image style="overflow:visible;" width="231" height="245" xlink:href="13C313F5.png"  transform="matrix(1 0 0 1 1538 503)">
			</image>
			
				<linearGradient id="SVGID_49_" gradientUnits="userSpaceOnUse" x1="1065.3875" y1="1513.522" x2="1674.6343" y2="1694.916" gradientTransform="matrix(0.7687 -0.6396 0.6396 0.7687 -477.6237 204.4944)">
				<stop  offset="3.910610e-02" style="stop-color:#000000"/>
				<stop  offset="0.2933" style="stop-color:#272425"/>
				<stop  offset="0.5391" style="stop-color:#3D3D3D"/>
				<stop  offset="0.7179" style="stop-color:#050505"/>
				<stop  offset="0.9274" style="stop-color:#000000"/>
			</linearGradient>
			<path class="st59" d="M1835.8,494.1c-51.1-23-170.5,12.5-175.9,135.5c-128.7-6.1-178.8,80.8-165.2,148.3l-118.2-142.1
				c25.6-107.9,223.4-274.9,341.1-283.8L1835.8,494.1z"/>
		</g>
	</g>
	<g>
		
			<linearGradient id="SVGID_50_" gradientUnits="userSpaceOnUse" x1="3075.1667" y1="42.965" x2="3180.5906" y2="8.1514" gradientTransform="matrix(0.9991 -4.248780e-02 4.248780e-02 0.9991 -1326.8792 1049.4557)">
			<stop  offset="0.1285" style="stop-color:#000000"/>
			<stop  offset="0.3827" style="stop-color:#272425"/>
			<stop  offset="0.5391" style="stop-color:#3D3D3D"/>
			<stop  offset="0.6508" style="stop-color:#050505"/>
			<stop  offset="0.8771" style="stop-color:#000000"/>
		</linearGradient>
		<path class="st60" d="M1795.9,924.2l-47.7,21.2c-0.4,0.2-0.4,0.8,0.1,1l49.3,14.8c0.5,0.1,1,0.1,1.5,0l51.1-19
			c0.5-0.2,0.5-0.8,0-1l-52.5-16.9C1797,923.9,1796.5,924,1795.9,924.2z"/>
		<path class="st32" d="M1798.3,960.6c-0.2,0-0.4,0-0.6-0.1l-48.5-14.7l46.9-20.2c0.2-0.1,0.4-0.1,0.6-0.1c0.2,0,0.4,0,0.6,0.1
			l51.6,16l-50.2,18.9C1798.7,960.5,1798.5,960.6,1798.3,960.6L1798.3,960.6z"/>
		<g>
			<path class="st1" d="M1824.7,944.1c0.3,6.8-12.2,12.9-27.8,13.6c-15.6,0.7-28.6-4.3-28.9-11.2s12.2-12.9,27.8-13.6
				C1811.5,932.2,1824.4,937.3,1824.7,944.1z"/>
			<path class="st33" d="M1824.6,944.2c0.3,6.8-12.1,12.8-27.7,13.5c-15.6,0.7-28.4-4.3-28.7-11.1c-0.3-6.8,12.1-12.8,27.7-13.5
				C1811.4,932.4,1824.3,937.4,1824.6,944.2z"/>
			<path class="st34" d="M1824.4,944.2c0.3,6.7-12.1,12.8-27.6,13.4c-15.5,0.7-28.3-4.3-28.6-11c-0.3-6.7,12.1-12.8,27.6-13.4
				C1811.3,932.5,1824.2,937.5,1824.4,944.2z"/>
			<path class="st35" d="M1824.3,944.3c0.3,6.7-12,12.7-27.5,13.3c-15.5,0.7-28.2-4.2-28.5-10.9s12-12.7,27.5-13.3
				C1811.3,932.7,1824.1,937.6,1824.3,944.3z"/>
			<path class="st36" d="M1824.2,944.3c0.3,6.6-12,12.6-27.4,13.2c-15.4,0.7-28.1-4.2-28.4-10.8c-0.3-6.6,12-12.6,27.4-13.2
				C1811.2,932.8,1824,937.7,1824.2,944.3z"/>
			<path class="st13" d="M1824.1,944.4c0.3,6.6-11.9,12.5-27.3,13.1c-15.3,0.7-28-4.2-28.3-10.8c-0.3-6.6,11.9-12.5,27.3-13.1
				C1811.2,932.9,1823.9,937.8,1824.1,944.4z"/>
			<path class="st37" d="M1824,944.4c0.3,6.5-11.9,12.4-27.2,13c-15.3,0.6-27.9-4.1-28.2-10.7c-0.3-6.5,11.9-12.4,27.2-13
				C1811.1,933.1,1823.7,937.9,1824,944.4z"/>
			<path class="st38" d="M1823.9,944.5c0.3,6.5-11.8,12.3-27.1,12.9c-15.2,0.6-27.8-4.1-28.1-10.6c-0.3-6.5,11.8-12.3,27.1-12.9
				C1811.1,933.2,1823.6,938,1823.9,944.5z"/>
			<path class="st39" d="M1823.8,944.5c0.3,6.4-11.8,12.2-27,12.8c-15.2,0.6-27.7-4.1-28-10.5c-0.3-6.4,11.8-12.2,27-12.8
				C1811,933.4,1823.5,938.1,1823.8,944.5z"/>
			<path class="st40" d="M1823.7,944.6c0.3,6.4-11.8,12.1-26.9,12.7c-15.1,0.6-27.6-4-27.8-10.4c-0.3-6.4,11.8-12.1,26.9-12.7
				C1811,933.5,1823.4,938.2,1823.7,944.6z"/>
			<path class="st41" d="M1823.6,944.6c0.3,6.3-11.7,12-26.8,12.6c-15,0.6-27.5-4-27.7-10.3c-0.3-6.3,11.7-12,26.8-12.6
				C1810.9,933.7,1823.3,938.3,1823.6,944.6z"/>
			<path class="st42" d="M1823.5,944.7c0.3,6.3-11.7,11.9-26.6,12.5c-15,0.6-27.3-3.9-27.6-10.2c-0.3-6.3,11.7-11.9,26.6-12.5
				C1810.9,933.8,1823.2,938.4,1823.5,944.7z"/>
			<path class="st43" d="M1823.4,944.7c0.3,6.2-11.6,11.8-26.5,12.4c-14.9,0.6-27.2-3.9-27.5-10.1c-0.3-6.2,11.6-11.8,26.5-12.4
				C1810.8,933.9,1823.1,938.5,1823.4,944.7z"/>
			<path class="st44" d="M1823.3,944.8c0.3,6.2-11.6,11.7-26.4,12.3c-14.9,0.6-27.1-3.9-27.4-10.1c-0.3-6.2,11.6-11.7,26.4-12.3
				C1810.8,934.1,1823,938.6,1823.3,944.8z"/>
			<path class="st45" d="M1823.2,944.8c0.3,6.1-11.5,11.6-26.3,12.3c-14.8,0.6-27-3.8-27.3-10c-0.3-6.1,11.5-11.6,26.3-12.3
				C1810.7,934.2,1822.9,938.7,1823.2,944.8z"/>
			<path class="st46" d="M1823.1,944.9c0.3,6.1-11.5,11.5-26.2,12.2c-14.7,0.6-26.9-3.8-27.2-9.9c-0.3-6.1,11.5-11.5,26.2-12.2
				C1810.6,934.4,1822.8,938.8,1823.1,944.9z"/>
			<path class="st47" d="M1823,944.9c0.3,6-11.4,11.4-26.1,12.1c-14.7,0.6-26.8-3.8-27.1-9.8c-0.3-6,11.4-11.4,26.1-12.1
				C1810.6,934.5,1822.7,938.9,1823,944.9z"/>
			<path class="st48" d="M1822.9,945c0.3,6-11.4,11.3-26,12c-14.6,0.6-26.7-3.7-26.9-9.7c-0.3-6,11.4-11.3,26-12
				C1810.5,934.6,1822.6,939,1822.9,945z"/>
			<path class="st49" d="M1822.7,945c0.3,5.9-11.4,11.2-25.9,11.9c-14.6,0.6-26.6-3.7-26.8-9.6c-0.3-5.9,11.4-11.2,25.9-11.9
				C1810.5,934.8,1822.5,939.1,1822.7,945z"/>
			<path class="st50" d="M1822.6,945.1c0.3,5.9-11.3,11.2-25.8,11.8c-14.5,0.6-26.5-3.7-26.7-9.5c-0.3-5.9,11.3-11.2,25.8-11.8
				C1810.4,934.9,1822.4,939.2,1822.6,945.1z"/>
			<path class="st51" d="M1822.5,945.1c0.2,5.8-11.3,11.1-25.7,11.7c-14.4,0.6-26.4-3.6-26.6-9.4c-0.2-5.8,11.3-11.1,25.7-11.7
				C1810.4,935.1,1822.3,939.3,1822.5,945.1z"/>
			<path d="M1822.4,945.2c0.2,5.8-11.2,11-25.6,11.6c-14.4,0.6-26.2-3.6-26.5-9.4c-0.2-5.8,11.2-11,25.6-11.6
				C1810.3,935.2,1822.2,939.4,1822.4,945.2z"/>
		</g>
		<g>
			<path class="st32" d="M1772.9,962.6c0,0,0.9,6.9,24.3,6.1c23-0.8,23.7-8.1,23.7-8.1s-4.4-12.7-23.8-11.8
				C1787,949.2,1772.4,957.4,1772.9,962.6z"/>
			<path d="M1774.3,963.3c3.4,3,10.2,5.1,22.8,4.6c13.5-0.6,20-3.3,22.3-6.5c1.3-1.8-3.7-4.5-7.3-5.4c-8.2-2.2-15.3,4.4-15.3,4.4
				s-9.2-5.1-14.6-3.8C1776.8,957.9,1773.2,962.4,1774.3,963.3z"/>
		</g>
		<g>
			
				<linearGradient id="SVGID_51_" gradientUnits="userSpaceOnUse" x1="3089.8611" y1="35.4381" x2="3090.9473" y2="35.4381" gradientTransform="matrix(0.9991 -4.248780e-02 4.248780e-02 0.9991 -1326.8792 1049.4557)">
				<stop  offset="0" style="stop-color:#632B02"/>
				<stop  offset="0.5391" style="stop-color:#D3882D"/>
				<stop  offset="1" style="stop-color:#632B02"/>
			</linearGradient>
			<path class="st61" d="M1763.4,967.7l-1.1,0l-1.2-27.4c0-0.8,0.9-1.3,1.1-0.2L1763.4,967.7z"/>
			<g>
				<g>
					<defs>
						<path id="SVGID_52_" d="M1763.4,965.2L1763.4,965.2L1763.4,965.2c0-0.2,0.1-0.3,0.2-0.3c0.1,0,0.2,0.1,0.2,0.2l0,0.1
							L1763.4,965.2z"/>
					</defs>
					<clipPath id="SVGID_53_">
						<use xlink:href="#SVGID_52_"  style="overflow:visible;"/>
					</clipPath>
					<g style="clip-path:url(#SVGID_53_);">
						<image style="overflow:visible;" width="1" height="2" xlink:href="13C313F7.png"  transform="matrix(1 0 0 1 1763 964)">
						</image>
					</g>
				</g>
				<image style="overflow:visible;" width="2" height="10" xlink:href="13C313F4.png"  transform="matrix(1 0 0 1 1762 965)">
				</image>
				<g>
					<defs>
						<path id="SVGID_54_" d="M1762.5,974.8L1762.5,974.8L1762.5,974.8c0,0.2-0.1,0.3-0.2,0.3c-0.1,0-0.2-0.1-0.2-0.2l0-0.1
							L1762.5,974.8z"/>
					</defs>
					<clipPath id="SVGID_55_">
						<use xlink:href="#SVGID_54_"  style="overflow:visible;"/>
					</clipPath>
					<g style="clip-path:url(#SVGID_55_);">
						<image style="overflow:visible;" width="1" height="2" xlink:href="13C313CB.png"  transform="matrix(1 0 0 1 1762 974)">
						</image>
					</g>
				</g>
			</g>
			<g>
				<g>
					<defs>
						<path id="SVGID_56_" d="M1761.8,965.2L1761.8,965.2c0-0.2,0.1-0.3,0.2-0.3c0.1,0,0.2,0.1,0.2,0.2l0,0l0,0.1L1761.8,965.2z"/>
					</defs>
					<clipPath id="SVGID_57_">
						<use xlink:href="#SVGID_56_"  style="overflow:visible;"/>
					</clipPath>
					<g style="clip-path:url(#SVGID_57_);">
						<image style="overflow:visible;" width="2" height="2" xlink:href="13C313CD.png"  transform="matrix(1 0 0 1 1761 964)">
						</image>
					</g>
				</g>
				<image style="overflow:visible;" width="3" height="11" xlink:href="13C313CF.png"  transform="matrix(1 0 0 1 1761 965)">
				</image>
				<g>
					<defs>
						<path id="SVGID_58_" d="M1763.6,975.3L1763.6,975.3c0,0.2,0,0.3-0.1,0.3c-0.1,0-0.2,0-0.3-0.2l0,0l0-0.1L1763.6,975.3z"/>
					</defs>
					<clipPath id="SVGID_59_">
						<use xlink:href="#SVGID_58_"  style="overflow:visible;"/>
					</clipPath>
					<g style="clip-path:url(#SVGID_59_);">
						<image style="overflow:visible;" width="1" height="2" xlink:href="13C313CC.png"  transform="matrix(1 0 0 1 1763 975)">
						</image>
					</g>
				</g>
			</g>
			<g>
				<g>
					<defs>
						<path id="SVGID_60_" d="M1762.6,966.2L1762.6,966.2L1762.6,966.2c0-0.2,0.1-0.3,0.2-0.3c0.1,0,0.2,0.1,0.2,0.2l0,0.1
							L1762.6,966.2z"/>
					</defs>
					<clipPath id="SVGID_61_">
						<use xlink:href="#SVGID_60_"  style="overflow:visible;"/>
					</clipPath>
					<g style="clip-path:url(#SVGID_61_);">
						<image style="overflow:visible;" width="2" height="2" xlink:href="13C313D4.png"  transform="matrix(1 0 0 1 1762 965)">
						</image>
					</g>
				</g>
				<image style="overflow:visible;" width="2" height="9" xlink:href="13C313D5.png"  transform="matrix(1 0 0 1 1762 966)">
				</image>
				<g>
					<defs>
						<path id="SVGID_62_" d="M1762.5,974.8L1762.5,974.8L1762.5,974.8c0,0.2-0.1,0.3-0.2,0.3s-0.2-0.1-0.2-0.2l0-0.1L1762.5,974.8z
							"/>
					</defs>
					<clipPath id="SVGID_63_">
						<use xlink:href="#SVGID_62_"  style="overflow:visible;"/>
					</clipPath>
					<g style="clip-path:url(#SVGID_63_);">
						<image style="overflow:visible;" width="1" height="2" xlink:href="13C313D7.png"  transform="matrix(1 0 0 1 1762 974)">
						</image>
					</g>
				</g>
			</g>
			<g>
				<g>
					<defs>
						<path id="SVGID_64_" d="M1762.5,966.1L1762.5,966.1L1762.5,966.1c0-0.2,0-0.3,0.2-0.3s0.2,0.1,0.3,0.2l0,0.1L1762.5,966.1z"/>
					</defs>
					<clipPath id="SVGID_65_">
						<use xlink:href="#SVGID_64_"  style="overflow:visible;"/>
					</clipPath>
					<g style="clip-path:url(#SVGID_65_);">
						<image style="overflow:visible;" width="1" height="2" xlink:href="13C31430.png"  transform="matrix(1 0 0 1 1762 965)">
						</image>
					</g>
				</g>
				<image style="overflow:visible;" width="2" height="10" xlink:href="13C31437.png"  transform="matrix(1 0 0 1 1762 965)">
				</image>
				<g>
					<defs>
						<path id="SVGID_66_" d="M1763.2,974.4L1763.2,974.4L1763.2,974.4c0,0.2-0.1,0.3-0.2,0.3c-0.1,0-0.2-0.1-0.2-0.2l0-0.1
							L1763.2,974.4z"/>
					</defs>
					<clipPath id="SVGID_67_">
						<use xlink:href="#SVGID_66_"  style="overflow:visible;"/>
					</clipPath>
					<g style="clip-path:url(#SVGID_67_);">
						<image style="overflow:visible;" width="2" height="2" xlink:href="13C31431.png"  transform="matrix(1 0 0 1 1762 974)">
						</image>
					</g>
				</g>
			</g>
			<g>
				<g>
					<defs>
						<path id="SVGID_68_" d="M1762.1,972.9L1762.1,972.9L1762.1,972.9c0,0.2-0.1,0.3-0.2,0.3c-0.1,0-0.2-0.1-0.2-0.2l0-0.1
							L1762.1,972.9z"/>
					</defs>
					<clipPath id="SVGID_69_">
						<use xlink:href="#SVGID_68_"  style="overflow:visible;"/>
					</clipPath>
					<g style="clip-path:url(#SVGID_69_);">
						<image style="overflow:visible;" width="2" height="2" xlink:href="13C31433.png"  transform="matrix(1 0 0 1 1761 972)">
						</image>
					</g>
				</g>
				<image style="overflow:visible;" width="2" height="7" xlink:href="13C3143E.png"  transform="matrix(1 0 0 1 1761 966)">
				</image>
				<g>
					<defs>
						<path id="SVGID_70_" d="M1762.2,966.5L1762.2,966.5c0-0.2,0.2-0.3,0.3-0.2c0.1,0,0.2,0.1,0.2,0.3l0,0l0,0.1L1762.2,966.5z"/>
					</defs>
					<clipPath id="SVGID_71_">
						<use xlink:href="#SVGID_70_"  style="overflow:visible;"/>
					</clipPath>
					<g style="clip-path:url(#SVGID_71_);">
						<image style="overflow:visible;" width="1" height="2" xlink:href="13C3143F.png"  transform="matrix(1 0 0 1 1762 965)">
						</image>
					</g>
				</g>
			</g>
			<g>
				<g>
					<defs>
						<path id="SVGID_72_" d="M1763.1,975L1763.1,975L1763.1,975c0,0.2,0,0.3-0.1,0.3s-0.2,0-0.3-0.2l0-0.1L1763.1,975z"/>
					</defs>
					<clipPath id="SVGID_73_">
						<use xlink:href="#SVGID_72_"  style="overflow:visible;"/>
					</clipPath>
					<g style="clip-path:url(#SVGID_73_);">
						<image style="overflow:visible;" width="2" height="3" xlink:href="13C31432.png"  transform="matrix(1 0 0 1 1762 974)">
						</image>
					</g>
				</g>
				<image style="overflow:visible;" width="2" height="9" xlink:href="13C31435.png"  transform="matrix(1 0 0 1 1762 967)">
				</image>
				<g>
					<defs>
						<path id="SVGID_74_" d="M1762.2,967.8L1762.2,967.8c0-0.2,0-0.3,0.2-0.3c0.1,0,0.2,0.1,0.3,0.2l0,0l0,0.1L1762.2,967.8z"/>
					</defs>
					<clipPath id="SVGID_75_">
						<use xlink:href="#SVGID_74_"  style="overflow:visible;"/>
					</clipPath>
					<g style="clip-path:url(#SVGID_75_);">
						<image style="overflow:visible;" width="2" height="2" xlink:href="13C31436.png"  transform="matrix(1 0 0 1 1761 966)">
						</image>
					</g>
				</g>
			</g>
			<g>
				<g>
					<defs>
						<path id="SVGID_76_" d="M1764,973.5L1764,973.5L1764,973.5c0.1,0.2,0,0.3-0.1,0.4c-0.1,0-0.2,0-0.3-0.1l0-0.1L1764,973.5z"/>
					</defs>
					<clipPath id="SVGID_77_">
						<use xlink:href="#SVGID_76_"  style="overflow:visible;"/>
					</clipPath>
					<g style="clip-path:url(#SVGID_77_);">
						<image style="overflow:visible;" width="2" height="2" xlink:href="13C31434.png"  transform="matrix(1 0 0 1 1763 973)">
						</image>
					</g>
				</g>
				<image style="overflow:visible;" width="3" height="9" xlink:href="13C3141B.png"  transform="matrix(1 0 0 1 1762 965)">
				</image>
				<g>
					<defs>
						<path id="SVGID_78_" d="M1763.3,966.2L1763.3,966.2l0-0.1c0-0.1,0-0.2,0.1-0.3c0.1,0,0.2,0,0.3,0.1l0,0.1L1763.3,966.2z"/>
					</defs>
					<clipPath id="SVGID_79_">
						<use xlink:href="#SVGID_78_"  style="overflow:visible;"/>
					</clipPath>
					<g style="clip-path:url(#SVGID_79_);">
						<image style="overflow:visible;" width="2" height="2" xlink:href="13C31415.png"  transform="matrix(1 0 0 1 1762 965)">
						</image>
					</g>
				</g>
			</g>
			<g>
				<g>
					<defs>
						<path id="SVGID_80_" d="M1762.1,973.5L1762.1,973.5L1762.1,973.5c0,0.2,0,0.3-0.1,0.3c-0.1,0-0.2,0-0.3-0.2l0-0.1
							L1762.1,973.5z"/>
					</defs>
					<clipPath id="SVGID_81_">
						<use xlink:href="#SVGID_80_"  style="overflow:visible;"/>
					</clipPath>
					<g style="clip-path:url(#SVGID_81_);">
						<image style="overflow:visible;" width="2" height="2" xlink:href="13C31417.png"  transform="matrix(1 0 0 1 1761 973)">
						</image>
					</g>
				</g>
				<image style="overflow:visible;" width="2" height="8" xlink:href="13C3146A.png"  transform="matrix(1 0 0 1 1761 966)">
				</image>
				<g>
					<defs>
						<path id="SVGID_82_" d="M1762.1,966.2L1762.1,966.2l0-0.1c0-0.1,0.1-0.2,0.2-0.2c0.1,0,0.2,0.1,0.2,0.2l0,0.1L1762.1,966.2z"
							/>
					</defs>
					<clipPath id="SVGID_83_">
						<use xlink:href="#SVGID_82_"  style="overflow:visible;"/>
					</clipPath>
					<g style="clip-path:url(#SVGID_83_);">
						<image style="overflow:visible;" width="2" height="2" xlink:href="13C3146B.png"  transform="matrix(1 0 0 1 1761 965)">
						</image>
					</g>
				</g>
			</g>
			<g>
				<g>
					<defs>
						<path id="SVGID_84_" d="M1763.7,974.5L1763.7,974.5c0,0.2-0.2,0.3-0.3,0.3c-0.1,0-0.2-0.1-0.2-0.3l0,0l0-0.1L1763.7,974.5z"/>
					</defs>
					<clipPath id="SVGID_85_">
						<use xlink:href="#SVGID_84_"  style="overflow:visible;"/>
					</clipPath>
					<g style="clip-path:url(#SVGID_85_);">
						<image style="overflow:visible;" width="1" height="2" xlink:href="13C3146D.png"  transform="matrix(1 0 0 1 1763 974)">
						</image>
					</g>
				</g>
				<image style="overflow:visible;" width="3" height="10" xlink:href="13C3146F.png"  transform="matrix(1 0 0 1 1762 965)">
				</image>
				<g>
					<defs>
						<path id="SVGID_86_" d="M1762.7,965.2L1762.7,965.2L1762.7,965.2c0-0.2,0-0.3,0.2-0.3c0.1,0,0.2,0.1,0.3,0.2l0,0.1
							L1762.7,965.2z"/>
					</defs>
					<clipPath id="SVGID_87_">
						<use xlink:href="#SVGID_86_"  style="overflow:visible;"/>
					</clipPath>
					<g style="clip-path:url(#SVGID_87_);">
						<image style="overflow:visible;" width="2" height="2" xlink:href="13C31468.png"  transform="matrix(1 0 0 1 1762 964)">
						</image>
					</g>
				</g>
			</g>
			
				<linearGradient id="SVGID_88_" gradientUnits="userSpaceOnUse" x1="3089.2097" y1="48.2508" x2="3091.5989" y2="48.2508" gradientTransform="matrix(0.9991 -4.248780e-02 4.248780e-02 0.9991 -1326.8792 1049.4557)">
				<stop  offset="0" style="stop-color:#632B02"/>
				<stop  offset="0.5391" style="stop-color:#D3882D"/>
				<stop  offset="1" style="stop-color:#632B02"/>
			</linearGradient>
			<path class="st62" d="M1761.7,968.2c0,0,0.4,0.2,1.2,0.2c0.8,0,1.1-0.3,1.1-0.3s0.1-2.8-0.1-3.4c-0.2-0.6-2.1-0.5-2.3,0.3
				C1761.5,965.4,1761.7,968.2,1761.7,968.2z"/>
		</g>
	</g>
	<image style="overflow:visible;" width="37" height="37" xlink:href="13C31469.png"  transform="matrix(1 0 0 1 1778 941)">
	</image>
	
		<linearGradient id="SVGID_89_" gradientUnits="userSpaceOnUse" x1="3091.533" y1="24.4339" x2="3157.4685" y2="44.0652" gradientTransform="matrix(0.9991 -4.248780e-02 4.248780e-02 0.9991 -1326.8792 1049.4557)">
		<stop  offset="3.910610e-02" style="stop-color:#000000"/>
		<stop  offset="0.2933" style="stop-color:#272425"/>
		<stop  offset="0.5391" style="stop-color:#3D3D3D"/>
		<stop  offset="0.7179" style="stop-color:#050505"/>
		<stop  offset="0.9274" style="stop-color:#000000"/>
	</linearGradient>
	<path class="st63" d="M1820.8,960.5c-2.9-5.3-15.5-10.1-24,0.1c-10.7-9-20.7-4.8-23.9,1.9l-0.9-20c9.3-7.6,37.3-9,48-2
		L1820.8,960.5z"/>
	<text transform="matrix(1 0 0 1 1581.2344 1046.4629)"><tspan x="0" y="0" class="st64 st65 st66">Tru</tspan><tspan x="182" y="0" class="st67 st65 st66">E</tspan><tspan x="250.1" y="0" class="st64 st65 st66">d</tspan></text>
	<text transform="matrix(1 0 0 1 1584.084 949.3516)" class="st67 st65 st68">VISWASAI’s</text>
	<path class="st69" d="M1978,1028.6l-33.5-2.3l-33.5,2.3v4.6l28.9-2c0.3,2.3,2.3,4.1,4.6,4.1s4.3-1.7,4.6-4.1l28.9,2V1028.6z"/>
	<path class="st64" d="M1974.6,1021.7l-17.7-4.2c-4.2-1-8.6-0.3-12.3,1.9v6.9l30,2.3V1021.7z"/>
	<path class="st64" d="M1914.5,1021.7l17.7-4.2c4.2-1,8.6-0.3,12.3,1.9v6.9l-30,2.3V1021.7z"/>
	<path class="st70" d="M1956.8,1017.5c-4.2-1-8.6-0.3-12.3,1.9v3.5c3.7-2.2,8.1-2.9,12.3-1.9l17.7,4.2v-3.5L1956.8,1017.5z"/>
	<path class="st70" d="M1932.2,1017.5l-17.7,4.2v3.5l17.7-4.2c4.2-1,8.6-0.3,12.3,1.9v-3.5
		C1940.8,1017.2,1936.4,1016.5,1932.2,1017.5z"/>
	<path class="st71" d="M1978,1028.6l-33.5-2.3l-33.5,2.3v2.3l29.2-2c0.5,0,1,0.1,1.4,0.5s0.6,0.9,0.6,1.4c0,1.2,0.8,2.2,1.9,2.4
		c0.7,0.1,1.4-0.1,1.9-0.5c0.5-0.4,0.8-1.1,0.8-1.8c0-0.6,0.2-1.1,0.6-1.5c0.4-0.4,1-0.6,1.5-0.5l29,2V1028.6z"/>
	<g>
		<path class="st72" d="M1944.5,1015.9c-0.6,0-1.2-0.5-1.2-1.2v-8.1c0-0.6,0.5-1.2,1.2-1.2s1.2,0.5,1.2,1.2v8.1
			C1945.7,1015.4,1945.2,1015.9,1944.5,1015.9z"/>
		<path class="st72" d="M1951.5,1012.5h-0.2c-0.3-0.1-0.6-0.2-0.8-0.5s-0.2-0.6-0.2-0.9l1.2-5.8c0.1-0.6,0.7-1.1,1.4-0.9
			s1.1,0.7,0.9,1.4l-1.2,5.8C1952.5,1012.1,1952,1012.5,1951.5,1012.5z"/>
		<path class="st72" d="M1936.4,1012.5c-0.6,0-1-0.4-1.2-0.9l-1.2-5.8c-0.1-0.6,0.3-1.3,0.9-1.4s1.3,0.3,1.4,0.9l1.2,5.8
			c0.1,0.3,0,0.6-0.2,0.9s-0.4,0.4-0.8,0.5H1936.4z"/>
		<path class="st72" d="M1957.2,1013.6c-0.2,0-0.4-0.1-0.6-0.2c-0.5-0.4-0.7-1.1-0.3-1.6l6.9-10.4c0.2-0.4,0.6-0.6,1.1-0.6
			c0.4,0,0.8,0.3,1,0.7c0.2,0.4,0.1,0.9-0.2,1.2l-6.9,10.4C1958,1013.4,1957.6,1013.6,1957.2,1013.6z"/>
		<path class="st72" d="M1930.7,1013.6c-0.4,0-0.7-0.2-1-0.5l-6.9-10.4c-0.3-0.3-0.3-0.8-0.2-1.2c0.2-0.4,0.6-0.7,1-0.7
			c0.4,0,0.8,0.2,1.1,0.6l6.9,10.4c0.3,0.5,0.2,1.2-0.3,1.6C1931.1,1013.6,1930.9,1013.6,1930.7,1013.6z"/>
		<path class="st72" d="M1964.2,1014.8c-0.4,0-0.7-0.2-0.9-0.5c-0.4-0.5-0.3-1.2,0.2-1.6l4.6-3.5c0.5-0.4,1.2-0.3,1.6,0.2
			c0.4,0.5,0.3,1.2-0.2,1.6l-4.6,3.5C1964.7,1014.7,1964.4,1014.8,1964.2,1014.8z"/>
		<path class="st72" d="M1924.9,1014.8c-0.2,0-0.5-0.1-0.7-0.2l-4.6-3.5c-0.5-0.4-0.6-1.1-0.2-1.6c0.4-0.5,1.1-0.6,1.6-0.2l4.6,3.5
			c0.5,0.4,0.6,1.1,0.2,1.6C1925.6,1014.6,1925.3,1014.8,1924.9,1014.8z"/>
	</g>
	
		<image style="overflow:visible;enable-background:new    ;" width="200" height="200" xlink:href="13C31475.png"  transform="matrix(0.1774 0 0 0.1774 1927.0699 968.0193)">
	</image>
	
		<image style="overflow:visible;enable-background:new    ;" width="198" height="198" xlink:href="13C3140A.png"  transform="matrix(9.572250e-02 0 0 9.572250e-02 1936.2423 975.3815)">
	</image>
	<text transform="matrix(1 0 0 1 332.3867 986)" class="st1 st65 st73">10</text>
	<text transform="matrix(0.583 0 0 0.583 404.9629 962.0244)" class="st1 st65 st73">th</text>
	<text transform="matrix(1 0 0 1 440.5156 986)" class="st1 st65 st73"> MAY 2020</text>
	<text transform="matrix(1 0 0 1 369.3867 1102)" class="st65 st73">Onwards..</text>
</g>
</svg>
