<svg xmlns="http://www.w3.org/2000/svg" width="20.703" height="22.457" viewBox="0 0 20.703 22.457"><defs><style>.a{fill:#fff;}</style></defs><path class="a" d="M384.963,15.06l2.382,1.986a.877.877,0,1,0,1.124-1.347l-2.382-1.986a.877.877,0,1,0-1.124,1.347Z" transform="translate(-368.654 -12.917)"/><path class="a" d="M33.923,17.251a.874.874,0,0,0,.561-.2l2.382-1.986a.877.877,0,1,0-1.124-1.347L33.36,15.7a.877.877,0,0,0,.562,1.551Z" transform="translate(-32.473 -12.917)"/><path class="a" d="M37.671,4.786a10.273,10.273,0,0,0-6.442-2.995V.877a.877.877,0,0,0-1.754,0v.914a10.351,10.351,0,0,0-6.442,17.634,10.353,10.353,0,0,0,13.454,1.019.877.877,0,1,0-1.041-1.412,8.585,8.585,0,1,1,2.443-2.787.877.877,0,0,0,1.537.846,10.357,10.357,0,0,0-1.755-12.3Z" transform="translate(-20)"/><path class="a" d="M222.028,151.343a.877.877,0,0,0-1.234.13l-2.766,3.418a1.756,1.756,0,1,0,1.364,1.1l2.766-3.418A.877.877,0,0,0,222.028,151.343Z" transform="translate(-207.403 -144.518)"/></svg>