<svg xmlns="http://www.w3.org/2000/svg" width="498.605" height="401.406" viewBox="0 0 498.605 401.406"><defs><style>.a{fill:#e6e6e6;}.b{fill:#fff;}.c{fill:#ffb8b8;}.d{fill:#2f2e41;}.e{fill:#3893f8;}.f{fill:#3f3d56;}.g{fill:#ffb9b9;}.h{fill:#f2f2f2;}</style></defs><g transform="translate(-122.863 -374.593)"><g transform="translate(122.863 374.593)"><path class="a" d="M915.382,666.813c5.836-6.64,33.316-39.32,13.784-44.708-14.67-4.047-16.3,18.216-15.812,33.156-2.349-10.066-6.908-21.824-14.917-16.636-11.543,7.477,10.086,24.023,15.736,28.085.093.826.154,1.285.154,1.285s.232-.253.645-.718c.323.226.5.347.5.347S915.445,667.332,915.382,666.813Z" transform="translate(-596.293 -406.955)"/><path class="a" d="M234.331,699.952c6.684-7.6,38.158-45.035,15.788-51.206-16.8-4.635-18.674,20.864-18.11,37.975-2.69-11.529-7.912-25-17.085-19.054-13.221,8.564,11.552,27.515,18.023,32.167.106.946.176,1.472.176,1.472s.265-.289.739-.822c.37.259.575.4.575.4S234.4,700.547,234.331,699.952Z" transform="translate(-211.097 -421.919)"/><path class="a" d="M430.087,181.278a2.187,2.187,0,0,0-2.184,2.184V417.177a2.187,2.187,0,0,0,2.184,2.184H618.368a2.187,2.187,0,0,0,2.184-2.184V183.463a2.187,2.187,0,0,0-2.184-2.184Z" transform="translate(-333.192 -158.975)"/><path class="b" d="M625.613,406.456H497.179a3.276,3.276,0,0,1,0-6.553H625.613a3.276,3.276,0,0,1,0,6.553Z" transform="translate(-370.36 -282.094)"/><path class="b" d="M685.283,266.706H600.076c-1.2,0-2.174-1.467-2.174-3.276s.973-3.276,2.174-3.276h85.207c1.2,0,2.174,1.467,2.174,3.276S686.484,266.706,685.283,266.706Z" transform="translate(-428.927 -203.394)"/><path class="b" d="M685.283,309.706H600.076c-1.2,0-2.174-1.467-2.174-3.276s.973-3.276,2.174-3.276h85.207c1.2,0,2.174,1.467,2.174,3.276S686.484,309.706,685.283,309.706Z" transform="translate(-428.927 -227.609)"/><path class="b" d="M625.613,454.956H497.179a3.276,3.276,0,0,1,0-6.553H625.613a3.276,3.276,0,0,1,0,6.553Z" transform="translate(-370.36 -309.407)"/><path class="b" d="M625.613,503.456H497.179a3.276,3.276,0,1,1,0-6.553H625.613a3.276,3.276,0,0,1,0,6.553Z" transform="translate(-370.36 -336.72)"/><path class="b" d="M625.613,551.956H497.179a3.276,3.276,0,0,1,0-6.553H625.613a3.276,3.276,0,0,1,0,6.553Z" transform="translate(-370.36 -364.033)"/><path class="b" d="M625.613,600.456H497.179a3.276,3.276,0,0,1,0-6.553H625.613a3.276,3.276,0,0,1,0,6.553Z" transform="translate(-370.36 -391.345)"/><path class="b" d="M625.613,648.956H497.179a3.276,3.276,0,1,1,0-6.553H625.613a3.276,3.276,0,0,1,0,6.553Z" transform="translate(-370.36 -418.658)"/><ellipse class="b" cx="17.256" cy="17.256" rx="17.256" ry="17.256" transform="translate(123.543 52.391)"/><path class="b" d="M594.265,414.9" transform="translate(-426.879 -290.541)"/><path class="c" d="M469.916,408.849l-25.732,13.68-.326-11.4a76.207,76.207,0,0,0,23.777-7.817l2.691-6.649a4.507,4.507,0,0,1,7.661-1.17h0a4.507,4.507,0,0,1-.4,6.146Z" transform="translate(-342.177 -278.683)"/><path class="d" d="M359.354,586.754h0a5.056,5.056,0,0,1,.642-4.09l5.653-8.675a9.878,9.878,0,0,1,12.815-3.381h0c-2.376,4.044-2.044,7.591.82,10.674a51.389,51.389,0,0,0-12.2,8.32,5.056,5.056,0,0,1-7.726-2.848Z" transform="translate(-294.488 -377.604)"/><path class="d" d="M445.055,534.04h0a9.7,9.7,0,0,1-8.244,4.709l-37.552.284-1.629-9.446,16.612-4.886-14.006-10.749,15.309-17.914,27.805,25.916A9.7,9.7,0,0,1,445.055,534.04Z" transform="translate(-316.144 -336.233)"/><path class="d" d="M366.341,565.049h-8.794c-7.9-54.125-15.934-108.4,7.817-128.659l28.012,4.56-3.583,23.777-15.634,17.914Z" transform="translate(-289.088 -302.642)"/><path class="d" d="M381.394,743.28h0a5.056,5.056,0,0,1-4.09-.642l-8.675-5.652a9.878,9.878,0,0,1-3.382-12.815h0c4.044,2.375,7.591,2.044,10.674-.821a51.385,51.385,0,0,0,8.32,12.2,5.056,5.056,0,0,1-2.847,7.726Z" transform="translate(-297.284 -464.244)"/><path class="d" d="M414.007,300.038H372.2c-7.721-10.923-8.627-21.368,0-31.145,0-4.323,5.584-7.828,12.472-7.828h0c5.4,0,10.18,2.178,11.855,5.4Z" transform="translate(-298.368 -203.908)"/><path class="c" d="M414.662,324.655l-16.286-3.909c2.7-5.537,2.928-11.7,1.629-18.24l11.074-.326A85.05,85.05,0,0,0,414.662,324.655Z" transform="translate(-316.564 -227.062)"/><path class="e" d="M406.593,393.652c-11.855,8.079-20.232.276-26.625-11.761.888-7.366-.55-16.181-3.214-25.759a17.534,17.534,0,0,1,10.705-21.144h0l14.006,5.863c11.893,9.694,14.233,20.194,9.772,31.269Z" transform="translate(-304.019 -245.537)"/><path class="c" d="M330.13,355.052l-13.029,6.84,23.126,13.68,3.218,7.937a4.21,4.21,0,0,1-2.529,5.561h0a4.21,4.21,0,0,1-5.575-3.733l-.325-5.532-29.393-9.7a6.873,6.873,0,0,1-4.313-4.2h0a6.873,6.873,0,0,1,2.579-8L327.524,341.7Z" transform="translate(-261.671 -249.316)"/><path class="e" d="M374.957,351.922c-5.434-2.381-10.375.205-16.612,2.28l-.977-17.263c6.193-3.3,12.1-4.191,17.589-1.629Z" transform="translate(-293.47 -244.883)"/><path class="d" d="M419.905,301.089h-9.221c-5.739-10.587-5.479-29.293-17.814-25.124-7.925-4.7-3.378,13.754-5.348,25.124H379.5c-2.179-11.109-2.209-22.241.354-31.294a4.218,4.218,0,0,1,1.534-3.084,8.715,8.715,0,0,1,1.287-.978c2.834-1.785,4.737-2.8,8.877-2.8a24.99,24.99,0,0,1,6.853.942c.29.085.577.176.853.271.381.13.749.273,1.1.427a7.575,7.575,0,0,1,3.909,3.152C412.075,277.031,416.059,288.774,419.905,301.089Z" transform="translate(-305.032 -204.958)"/><ellipse class="c" cx="10.398" cy="10.398" rx="10.398" ry="10.398" transform="translate(77.589 62.874)"/><path class="d" d="M409.461,277.362c-3.128-4.264-11.286.822-21.093,4.456v-10.1c8.067-3.551,12.772-4.576,18.122-.891Z" transform="translate(-310.928 -208.101)"/><ellipse class="e" cx="25.188" cy="25.188" rx="25.188" ry="25.188" transform="translate(256.206 0)"/><path class="b" d="M829.077,170.549a1.662,1.662,0,0,0,0,3.324h8.833v8.833a1.662,1.662,0,1,0,3.324,0v-8.833h8.833a1.662,1.662,0,0,0,0-3.324h-8.833v-8.833a1.662,1.662,0,1,0-3.324,0v8.833Z" transform="translate(-558.177 -147.023)"/><path class="a" d="M234.331,699.952c6.684-7.6,38.158-45.035,15.788-51.206-16.8-4.635-18.674,20.864-18.11,37.975-2.69-11.529-7.912-25-17.085-19.054-13.221,8.564,11.552,27.515,18.023,32.167.106.946.176,1.472.176,1.472s.265-.289.739-.822c.37.259.575.4.575.4S234.4,700.547,234.331,699.952Z" transform="translate(195.902 -301.92)"/></g><g transform="translate(358.381 461.995)"><path class="f" d="M451.687,160.73h-1.725V113.466a27.355,27.355,0,0,0-27.355-27.355H322.471a27.355,27.355,0,0,0-27.355,27.355V372.76a27.355,27.355,0,0,0,27.355,27.355H422.606a27.355,27.355,0,0,0,27.355-27.355V194.373h1.725Z" transform="translate(-295.116 -86.111)"/><path class="b" d="M454.088,123.034V381.947a20.428,20.428,0,0,1-17.619,20.236,20.181,20.181,0,0,1-2.811.194H333.039a20.174,20.174,0,0,1-2.813-.194,20.427,20.427,0,0,1-17.612-20.235V123.034A20.43,20.43,0,0,1,333.043,102.6h12.206a9.7,9.7,0,0,0,8.987,13.371H411.6a9.7,9.7,0,0,0,8.983-13.371h13.073a20.43,20.43,0,0,1,20.429,20.429Z" transform="translate(-305.064 -95.489)"/><path class="a" d="M454.088,597.945v65.624A20.428,20.428,0,0,1,436.469,683.8H330.226a20.427,20.427,0,0,1-17.612-20.235V597.945Z" transform="translate(-305.064 -377.111)"/><ellipse class="b" cx="13.513" cy="13.513" rx="13.513" ry="13.513" transform="translate(64.773 250.25)"/><path class="a" d="M178.871,601.718h-7.3v-7.3h-1.622v7.3h-7.3v1.621h7.3v7.3h1.622v-7.3h7.3Z" transform="translate(-92.477 -337.955)"/><path class="g" d="M519.209,500.548v12.137l-6.233,7.217s-2.624-.984-2.624-7.545l-.984-9.513Z" transform="translate(-416.928 -321.737)"/><path class="g" d="M516.111,505.647s10.169-6.889,10.5-9.185,9.753-12.633,12.465-6.233c2.56,6.04-7.8,11.218-7.8,11.218s-7.294,13.385-12.214,13.057S514.143,507.943,516.111,505.647Z" transform="translate(-420.063 -314.698)"/><path class="g" d="M207.633,613.633l-.984,5.9,5.249-1.312v-4.592Z" transform="translate(-117.489 -348.878)"/><path class="d" d="M499.876,704.2s6.066-3.594,6.313-1.961,2.872,7.865,4.184,8.522,2.952,7.873,0,7.545c-2.286-.254-10.673-4.64-14.339-6.606a2,2,0,0,1-.861-2.618,4.134,4.134,0,0,0,.439-1.274C495.612,707.154,499.876,704.2,499.876,704.2Z" transform="translate(-408.749 -436.166)"/><path class="d" d="M457.987,546.092s23.946,11.153,21.65,19.682-10.825,44.612-10.825,44.612-9.513,2.3-10.169,0,6.233-38.052,5.577-39.364-12.793-9.841-12.793-9.841l-24.93-10.5,10.5-9.841Z" transform="translate(-369.812 -344.647)"/><path class="g" d="M238.836,618.2l2.952,7.545-5.249,2.3-3.28-5.9Z" transform="translate(-132.618 -351.471)"/><path class="g" d="M480.793,415.527s-2.952,3.936-.656,5.9.656,9.185.656,9.185l-2.952,8.2-11.809-2.3V423.071l.656-6.561s5.9-5.577,6.561-9.841S480.793,415.527,480.793,415.527Z" transform="translate(-392.289 -267.878)"/><path class="d" d="M433.647,546.926s15.417,17.058,15.417,17.714,8.2,14.105,8.2,14.105L473.339,614.5s-6.233,8.529-8.857,7.873-21.322-38.708-21.322-38.708-3.28-8.529-12.137-10.5-15.745-8.857-12.465-16.729S433.647,546.926,433.647,546.926Z" transform="translate(-364.825 -348.105)"/><ellipse class="g" cx="10.497" cy="10.497" rx="10.497" ry="10.497" transform="translate(78.007 128.951)"/><path class="e" d="M467.065,446.255s-1.312,7.545-2.624,8.2-2.3,2.952-5.249-.328-5.577-9.841-5.577-9.841l-10.169,12.465-.984,34.443s11.481-2.952,15.089,0,11.481,2.624,11.481,2.624l-1.64-6.561,1.312-11.153-.328-10.169-.328-7.217Z" transform="translate(-378.889 -289.75)"/><path class="f" d="M496.167,436.052s4.436,2.241,4.764,3.553,6.233,3.936,6.233,3.936,2.3,2.3,2.3,3.608-7.873,16.4-7.873,16.4-1.64,10.169-.984,12.137-1.312,9.513-1.312,9.513l3.936,4.592h-3.608s-3.936-1.968-3.936-2.952.656-7.873.984-10.825.328-13.449-.328-17.058-.328-13.121-.328-15.417S496.167,436.052,496.167,436.052Z" transform="translate(-409.147 -285.068)"/><path class="f" d="M437.82,424.507s-1.476.333-5.741,1.646-10.825,3.28-13.121,5.9a40.665,40.665,0,0,0-4.264,6.233l1.312,23.618s-2.624,4.92-2.3,7.545,2.952,2.952.984,8.529-5.9,10.5-2.3,11.153,13.121-1.64,17.386-.328,9.185-4.92,9.185-4.92-6.561.656-5.577-1.968S445.2,449.771,442.9,443.21,437.82,424.507,437.82,424.507Z" transform="translate(-360.962 -278.504)"/><path class="f" d="M513.822,457.972l1.64,1.312s4.592,16.4,3.28,18.042-11.809,5.249-12.465,2.952S513.822,457.972,513.822,457.972Z" transform="translate(-415.15 -297.531)"/><path class="g" d="M404.807,484.582s-4.92,14.105-4.92,18.042.656,26.9.656,26.9,3.28,13.783,10.169,9.847-2.952-10.5-2.952-10.5.328-25.914,2.952-29.523a25.484,25.484,0,0,0,3.608-8.857Z" transform="translate(-354.683 -312.66)"/><path class="d" d="M533.385,719.2s4.92-2.624,5.9-.656,6.233,12.793,5.576,14.105-4.264,6.561-8.529,5.248-4.592-8.2-4.592-8.2l-.328-7.873Z" transform="translate(-429.464 -445.263)"/><path class="d" d="M483.3,385.857a4.62,4.62,0,0,0-2.035,1.2,10.124,10.124,0,0,0-.616,1.659,2.346,2.346,0,0,1-3.018,1.1,2.6,2.6,0,0,0-1.061-1.612,1.546,1.546,0,0,0-1.835.1c-.676.645-.437,1.769-.752,2.648a5.589,5.589,0,0,1-1.2,1.648,16.953,16.953,0,0,1-2.155,2.474,2.547,2.547,0,0,1-3.035.285,2.592,2.592,0,0,1-.7-2.534c.175-.9.61-1.738.856-2.627.8-2.887-.474-5.97-.08-8.939.5-3.8,3.738-6.81,7.347-8.114a8.6,8.6,0,0,1,4.743-.5c1.651.369,3.061,1.419,4.642,2.021a35.316,35.316,0,0,0,5.3,1.131,7.251,7.251,0,0,1,4.617,2.591,33.423,33.423,0,0,1,1.556,3.442,6.175,6.175,0,0,0,3.127,2.8l-1.87-.107a5.513,5.513,0,0,0,1.49,2.175,4,4,0,0,1-2.589-.342,2.815,2.815,0,0,0,.965,2.018,8.14,8.14,0,0,1-4.173-.881c-.6-.378-1.081-.9-1.642-1.332a12.149,12.149,0,0,0-4.122-1.76c-.759-.218-1.672-.521-2.358-.033C484.131,384.779,484.04,385.509,483.3,385.857Z" transform="translate(-392.742 -248.945)"/><path class="f" d="M415.929,447.328l-4.92,3.936-6.561,15.089s9.185,7.217,11.481,6.233,6.233-18.37,6.233-18.37Z" transform="translate(-357.276 -291.479)"/><ellipse class="h" cx="0.19" cy="0.162" rx="0.19" ry="0.162" transform="translate(121.559 178.493) rotate(-50.158)"/><path class="b" d="M563.924,432.7a2.132,2.132,0,0,0-2.13,2.13v35.663a2.132,2.132,0,0,0,2.13,2.13H707.692a2.132,2.132,0,0,0,2.13-2.13V434.829a2.132,2.132,0,0,0-2.13-2.13Z" transform="translate(-446.735 -283.162)"/><path class="a" d="M563.924,432.7a2.132,2.132,0,0,0-2.13,2.13v35.663a2.132,2.132,0,0,0,2.13,2.13H707.692a2.132,2.132,0,0,0,2.13-2.13V434.829a2.132,2.132,0,0,0-2.13-2.13Z" transform="translate(-446.735 -283.162)"/><path class="b" d="M567.347,473.383H710.583v-35.13H567.347Z" transform="translate(-449.892 -286.319)"/><ellipse class="e" cx="11.182" cy="11.182" rx="11.182" ry="11.182" transform="translate(124.644 158.317)"/><path class="a" d="M667.325,461.686a1.864,1.864,0,0,0,0,3.727h87.858a1.864,1.864,0,0,0,0-3.727Z" transform="translate(-505.674 -299.642)"/><path class="a" d="M667.325,487.6a1.864,1.864,0,0,0,0,3.727h87.858a1.864,1.864,0,0,0,0-3.727Z" transform="translate(-505.674 -314.377)"/><path class="b" d="M351.366,182.945a1.573,1.573,0,0,0-1.572,1.572v26.318a1.574,1.574,0,0,0,1.572,1.572h106.1a1.574,1.574,0,0,0,1.572-1.572V184.517a1.573,1.573,0,0,0-1.572-1.572Z" transform="translate(-326.203 -141.165)"/><path class="a" d="M351.366,182.945a1.573,1.573,0,0,0-1.572,1.572v26.318a1.574,1.574,0,0,0,1.572,1.572h106.1a1.574,1.574,0,0,0,1.572-1.572V184.517a1.573,1.573,0,0,0-1.572-1.572Z" transform="translate(-326.203 -141.165)"/><path class="b" d="M353.892,212.968H459.6V187.043h-105.7Z" transform="translate(-328.533 -143.496)"/><ellipse class="e" cx="8.252" cy="8.252" rx="8.252" ry="8.252" transform="translate(30.664 48.258)"/><path class="a" d="M427.672,204.336a1.375,1.375,0,0,0,0,2.751h64.836a1.375,1.375,0,1,0,0-2.751Z" transform="translate(-369.698 -153.327)"/><path class="a" d="M427.672,223.462a1.375,1.375,0,0,0,0,2.751h64.836a1.375,1.375,0,1,0,0-2.751Z" transform="translate(-369.698 -164.201)"/><path class="b" d="M351.366,291.945a1.573,1.573,0,0,0-1.572,1.572v26.318a1.574,1.574,0,0,0,1.572,1.572h106.1a1.574,1.574,0,0,0,1.572-1.572V293.517a1.573,1.573,0,0,0-1.572-1.572Z" transform="translate(-326.203 -203.137)"/><path class="a" d="M351.366,291.945a1.573,1.573,0,0,0-1.572,1.572v26.318a1.574,1.574,0,0,0,1.572,1.572h106.1a1.574,1.574,0,0,0,1.572-1.572V293.517a1.573,1.573,0,0,0-1.572-1.572Z" transform="translate(-326.203 -203.137)"/><path class="b" d="M353.892,321.968H459.6V296.043h-105.7Z" transform="translate(-328.533 -205.467)"/><ellipse class="e" cx="8.252" cy="8.252" rx="8.252" ry="8.252" transform="translate(30.664 95.287)"/><path class="a" d="M427.672,313.336a1.375,1.375,0,1,0,0,2.751h64.836a1.375,1.375,0,1,0,0-2.751Z" transform="translate(-369.698 -215.299)"/><path class="a" d="M427.672,332.462a1.375,1.375,0,0,0,0,2.751h64.836a1.375,1.375,0,1,0,0-2.751Z" transform="translate(-369.698 -226.173)"/></g></g></svg>